<?xml version="1.0" encoding="UTF-8"?>
<svg xmlns="http://www.w3.org/2000/svg" xmlns:xlink="http://www.w3.org/1999/xlink" viewBox="0 0 56.34 70.23">
  <defs>
    <clipPath id="b">
      <use xlink:href="#a" data-name="Rectangle 230"></use>
    </clipPath>
    <clipPath id="c">
      <use xlink:href="#a" data-name="Rectangle 229"></use>
    </clipPath>
    <clipPath id="d">
      <path fill="none" d="M0 0h40.84v41.59H0z" data-name="Rectangle 226"></path>
    </clipPath>
    <clipPath id="e">
      <path fill="none" d="M0 0h.03v.05H0z" data-name="Rectangle 227"></path>
    </clipPath>
    <clipPath id="f">
      <path fill="#292929" d="M0 0h22.98v12.74H0z" data-name="Rectangle 228"></path>
    </clipPath>
    <path id="a" fill="none" d="M0 0h56.34v70.23H0z"></path>
  </defs>
  <g data-name="Group 89" style="isolation:isolate">
    <g data-name="Group 88">
      <g clip-path="url(#b)" data-name="Group 87">
        <g clip-path="url(#c)" data-name="Group 86">
          <path fill="#6f6fdb" d="M0 0h27.178a48 48 0 0 1 10.167 1.042 24.1 24.1 0 0 1 8.431 3.472 17.3 17.3 0 0 1 5.753 6.546 22.2 22.2 0 0 1 2.132 10.266 20.6 20.6 0 0 1-3.869 12.647q-3.868 5.208-11.308 6.6l17.855 29.654H37.791L15.473 29.063v41.164H0Zm15.473 29.063H24.6q2.082 0 4.414-.148a13.9 13.9 0 0 0 4.215-.893 7.3 7.3 0 0 0 3.124-2.331 7.1 7.1 0 0 0 1.24-4.464 7.4 7.4 0 0 0-1.093-4.265 7.3 7.3 0 0 0-2.778-2.43 12.4 12.4 0 0 0-3.868-1.141 32 32 0 0 0-4.265-.3H15.473Z" data-name="Path 237"></path>
          <g data-name="Group 79" opacity=".5">
            <g data-name="Group 78">
              <g clip-path="url(#d)" data-name="Group 77" transform="translate(15.503 28.605)">
                <path fill="#cbcbf2" d="M40.838 41.585 15.802 0a15.4 15.4 0 0 1-2.262.308q-2.331.149-4.413.149H.001l22.3 41.128Z" data-name="Path 238"></path>
              </g>
            </g>
          </g>
          <g data-name="Group 82" opacity=".5">
            <g data-name="Group 81">
              <g clip-path="url(#e)" data-name="Group 80" transform="translate(15.474 29.025)">
                <path fill="#712b85" d="m0 .001.029.054V.001Z" data-name="Path 239"></path>
              </g>
            </g>
          </g>
          <g data-name="Group 85" opacity=".5">
            <g data-name="Group 84">
              <g clip-path="url(#f)" data-name="Group 83" transform="translate(15.503 28.605)">
                <path fill="#292929" d="M15.802 0h-.065a15.4 15.4 0 0 1-2.251.307q-2.332.149-4.414.148H.001L6.626 12.71a138 138 0 0 0 16.358-.748Z" data-name="Path 240"></path>
              </g>
            </g>
          </g>
        </g>
      </g>
    </g>
  </g>
</svg>
