<?xml version="1.0" encoding="UTF-8"?>
<svg xmlns="http://www.w3.org/2000/svg" id="Layer_1" data-name="Layer 1" viewBox="0 0 2669.5 1205.29">
  <defs>
    <style>
      .cls-1 {
        fill: #f5f4f0;
      }
    </style>
  </defs>
  <path class="cls-1" d="m2668.31,35.24c-11.74-11.59-23.24-23.34-34.48-35.24,9.37,12.78,19.02,25.46,28.97,38.03l5.51-2.79Z"></path>
  <path class="cls-1" d="m2667.48,89.98c-30.49-29.01-59.31-59.05-86.44-89.98,25.26,31.81,52.29,62.85,81.13,92.98l5.31-3.01Z"></path>
  <path class="cls-1" d="m2666.95,139.46c-50.38-43.97-96.66-90.66-138.72-139.46,40.18,49.68,84.74,97.44,133.62,142.66l5.1-3.2Z"></path>
  <path class="cls-1" d="m2667.22,184.91c-35.66-28.46-69.55-58.19-101.53-89.07-31.99-30.87-62.07-62.88-90.25-95.83,27.25,33.39,56.44,65.9,87.61,97.34,31.16,31.44,64.3,61.81,99.29,90.94l4.89-3.38Z"></path>
  <path class="cls-1" d="m2666.75,225.72c-46.26-33.87-89.92-69.78-130.66-107.5-40.75-37.72-78.56-77.25-113.45-118.2,33.95,41.4,70.89,81.44,110.85,119.76,39.95,38.32,82.91,74.9,128.58,109.49l4.68-3.55Z"></path>
  <path class="cls-1" d="m2665.68,262.72c-56.91-38.41-110.4-79.73-159.81-123.68-49.44-43.94-94.79-90.49-136.03-139.03,40.3,48.98,84.79,96.07,133.48,140.62,48.66,44.57,101.51,86.59,157.89,125.77l4.48-3.69Z"></path>
  <path class="cls-1" d="m2666.86,298.27c-68.11-42.42-132-88.72-190.51-138.66-58.55-49.92-111.68-103.42-159.31-159.58,46.69,56.6,98.97,110.66,156.8,161.22,57.79,50.59,121.1,97.63,188.74,140.85l4.27-3.83Z"></path>
  <path class="cls-1" d="m2665.7,329.75c-39.41-22.85-77.63-46.88-114.39-72.12-36.76-25.24-72.05-51.7-105.69-79.31-33.64-27.61-65.62-56.37-95.86-86.14-30.24-29.77-58.74-60.55-85.53-92.15,26.32,31.83,54.37,62.85,84.2,92.9,29.82,30.05,61.42,59.12,94.72,87.07,33.29,27.95,68.28,54.76,104.77,80.38,36.49,25.62,74.47,50.05,113.68,73.31l4.09-3.94Z"></path>
  <path class="cls-1" d="m2664.92,359.28c-44.8-24.26-88.28-49.91-130.06-77.06-41.78-27.14-81.85-55.79-119.92-85.88-38.08-30.09-74.14-61.62-108.07-94.41-33.93-32.79-65.73-66.84-95.43-101.9,29.23,35.28,60.58,69.59,94.11,102.66,33.52,33.08,69.22,64.93,106.97,95.36,37.74,30.44,77.53,59.45,119.06,86.99,41.53,27.54,84.8,53.6,129.43,78.27l3.91-4.04Z"></path>
  <path class="cls-1" d="m2666.36,388.04c-50.38-25.52-99.35-52.64-146.38-81.55-47.04-28.91-92.13-59.62-134.85-92.12-42.73-32.49-83.08-66.75-120.85-102.58-37.78-35.82-72.96-73.18-105.63-111.76,32.2,38.8,66.95,76.42,104.32,112.53,37.37,36.11,77.36,70.71,119.78,103.55,42.41,32.85,87.24,63.95,134.05,93.26,46.81,29.32,95.59,56.85,145.82,82.8l3.74-4.13Z"></path>
  <path class="cls-1" d="m2668.88,415.52c-56.01-26.65-110.56-55.06-162.96-85.58-52.41-30.51-102.66-63.14-150.17-97.91-47.51-34.76-92.27-71.67-133.95-110.46-41.7-38.78-80.32-79.43-115.95-121.52,35.16,42.31,73.35,83.22,114.65,122.3,41.29,39.09,85.7,76.33,132.92,111.47,47.21,35.14,97.22,68.16,149.43,99.08,52.2,30.93,106.59,59.77,162.46,86.84l3.58-4.21Z"></path>
  <path class="cls-1" d="m2668.07,439.89c-61.25-27.6-121.03-57.06-178.51-88.91-57.48-31.84-112.65-66.08-164.7-102.85-52.06-36.75-100.99-76.03-146.34-117.53-45.37-41.49-87.17-85.19-125.47-130.56,37.83,45.59,79.19,89.55,124.18,131.35,44.97,41.81,93.56,81.43,145.35,118.56,51.77,37.14,106.71,71.79,164.01,104.04,57.3,32.27,116.94,62.15,178.05,90.18l3.44-4.27Z"></path>
  <path class="cls-1" d="m2665.9,462.45c-66.26-28.48-131.09-58.87-193.49-91.9-62.4-33.02-122.35-68.7-178.85-107.29-56.51-38.57-109.54-80.04-158.5-124.09-48.98-44.04-93.88-90.63-134.81-139.12,40.46,48.71,84.93,95.56,133.53,139.91,48.58,44.36,101.28,86.19,157.53,125.14,56.23,38.97,115.97,75.06,178.21,108.5,62.23,33.45,126.94,64.27,193.06,93.17l3.32-4.33Z"></path>
  <path class="cls-1" d="m2666.92,485.33c-71.49-29.4-141.65-60.68-209.27-94.86-67.62-34.15-132.69-71.23-193.95-111.63-61.28-40.37-118.71-84.07-171.52-130.75-52.84-46.67-101.04-96.28-144.72-148.04,43.21,51.98,90.99,101.87,143.45,148.85,52.44,47,109.56,91.05,170.59,131.82,61.01,40.79,125.89,78.28,193.35,112.85,67.47,34.6,137.5,66.31,208.86,96.13l3.21-4.37Z"></path>
  <path class="cls-1" d="m2667.37,507.04c-76.58-30.33-151.94-62.43-224.71-97.64-72.77-35.18-142.92-73.5-208.94-115.58-66.04-42.04-127.88-87.84-184.52-137.05-56.68-49.19-108.16-101.75-154.54-156.72,45.91,55.19,96.96,108.02,153.28,157.53,56.28,49.53,117.82,95.7,183.62,138.13,65.78,42.47,135.76,81.21,208.38,116.82,72.63,35.63,147.87,68.17,224.31,98.91l3.12-4.41Z"></path>
  <path class="cls-1" d="m2667.63,527.93c-81.54-31.31-162.04-64.21-239.92-100.37-77.88-36.13-153.12-75.58-223.91-119.21-70.81-43.59-137.1-91.38-197.6-143.05-60.55-51.64-115.28-107.09-164.34-165.24,48.58,58.37,102.89,114.09,163.09,166.06,60.14,51.99,126.14,100.16,196.73,144.15,70.57,44.04,145.65,83.91,223.39,120.47,77.75,36.59,158.13,69.91,239.51,101.63l3.04-4.44Z"></path>
  <path class="cls-1" d="m2668.2,548.35c-86.42-32.39-172.02-66.08-255.02-103.15-82.99-37.04-163.36-77.51-239-122.62-75.66-45.05-146.47-94.76-210.89-148.83-64.48-54.04-122.51-112.37-174.23-173.69,51.26,61.54,108.86,120.15,172.99,174.52,64.07,54.41,134.61,104.49,210.06,149.95,75.43,45.51,155.65,86.42,238.51,123.88,82.87,37.5,168.34,71.61,254.6,104.4l2.98-4.46Z"></path>
  <path class="cls-1" d="m2667.87,568c-91.11-33.58-181.65-68.08-269.66-106.01-87.99-37.89-173.42-79.29-253.86-125.75-40.22-23.21-79.18-47.67-116.61-73.39-37.43-25.72-73.32-52.71-107.49-80.89-68.38-56.34-129.66-117.48-184-181.9,53.87,64.64,114.74,126.06,182.77,182.74,33.99,28.35,69.73,55.52,107.03,81.43,37.29,25.91,76.14,50.57,116.26,73.99,80.24,46.87,165.54,88.7,253.4,127.01,87.87,38.35,178.29,73.27,269.2,107.24l2.94-4.48Z"></path>
  <path class="cls-1" d="m2668.85,587.85c-95.79-34.97-191.33-70.35-284.43-109.14-93.08-38.76-183.71-81.02-269.1-128.78-42.7-23.86-84.07-49.07-123.8-75.68-39.73-26.61-77.8-54.62-113.98-83.95-36.19-29.33-70.49-59.98-102.83-91.76-32.34-31.78-62.73-64.68-91.26-98.47,28.29,33.9,58.46,66.93,90.6,98.85,32.13,31.92,66.25,62.72,102.27,92.22,36.02,29.5,73.94,57.7,113.54,84.5,39.6,26.81,80.86,52.22,123.47,76.29,85.21,48.18,175.71,90.87,268.66,130.05,92.97,39.22,188.37,75.01,283.94,110.36l2.92-4.49Z"></path>
  <path class="cls-1" d="m2667.06,606.55c-100.1-36.47-200.32-72.76-298.21-112.39-97.87-39.58-193.44-82.6-283.57-131.52-45.06-24.44-88.75-50.33-130.68-77.75-41.93-27.41-82.1-56.36-120.22-86.77-38.13-30.4-74.21-62.25-108.15-95.34-33.95-33.09-65.77-67.41-95.56-102.71,29.56,35.4,61.16,69.85,94.91,103.08,33.74,33.23,69.64,65.25,107.6,95.82,37.96,30.58,77.98,59.71,119.79,87.32,41.81,27.62,85.39,53.71,130.37,78.36,89.96,49.34,185.41,92.79,283.15,132.8,97.76,40.04,197.82,76.74,297.67,113.58l2.92-4.49Z"></path>
  <path class="cls-1" d="m2666.43,625.67c-104.37-38.23-209.29-75.56-312.05-116.05-51.38-20.24-102.2-41.27-152.08-63.52-49.87-22.24-98.79-45.71-146.29-70.72-47.5-25-93.59-51.54-137.8-79.75-44.22-28.2-86.56-58.08-126.69-89.56-40.14-31.47-78.06-64.54-113.66-98.97-35.61-34.42-68.9-70.2-99.99-107.02,30.86,36.94,63.93,72.84,99.33,107.41,35.4,34.57,73.14,67.8,113.12,99.45,39.97,31.65,82.17,61.72,126.27,90.12,44.1,28.41,90.08,55.16,137.5,80.37,47.42,25.22,96.27,48.9,146.08,71.36,49.81,22.46,100.58,43.7,151.88,64.15,102.62,40.91,207.37,78.64,311.45,117.22l2.93-4.48Z"></path>
  <path class="cls-1" d="m2667.97,645.76c-108.65-40.33-218.39-78.89-326.18-120.35-53.89-20.72-107.29-42.17-159.75-64.85-52.46-22.68-103.98-46.6-154.04-72.16-50.06-25.55-98.67-52.73-145.29-81.73-46.63-28.99-91.27-59.81-133.52-92.38-42.26-32.57-82.14-66.88-119.48-102.69-37.35-35.81-72.18-73.09-104.63-111.52,32.22,38.54,66.83,75.95,103.98,111.9,37.14,35.95,76.84,70.43,118.94,103.18,42.1,32.75,86.6,63.76,133.12,92.95,46.51,29.2,95.02,56.6,145.01,82.35,49.99,25.77,101.44,49.9,153.84,72.8,52.4,22.9,105.74,44.55,159.55,65.48,107.64,41.87,217.18,80.82,325.5,121.49l2.96-4.47Z"></path>
  <path class="cls-1" d="m2667.65,665.47c-112.6-42.66-226.91-82.58-339.52-125.03-56.3-21.22-112.17-43.08-167.14-66.18-54.96-23.09-109-47.44-161.56-73.49-52.56-26.05-103.63-53.82-152.61-83.55-48.99-29.72-95.88-61.41-140.22-95.02-44.35-33.6-86.13-69.11-125.18-106.25-39.06-37.13-75.39-75.88-109.15-115.85,33.53,40.08,69.64,78.96,108.5,116.24,38.85,37.28,80.45,72.96,124.65,106.74,44.18,33.79,90.95,65.67,139.83,95.6,48.88,29.94,99.86,57.92,152.34,84.18,52.49,26.27,106.47,50.83,161.36,74.13,54.9,23.31,110.71,45.38,166.93,66.81,112.44,42.86,226.53,83.15,338.76,126.14l3.01-4.45Z"></path>
  <path class="cls-1" d="m2667.11,685.55c-116.33-45.31-235.11-86.77-352.47-130.3-58.68-21.77-117.01-44.06-174.46-67.58-57.45-23.51-114.02-48.25-169.08-74.79-55.06-26.52-108.61-54.85-159.98-85.28-51.38-30.42-100.55-62.95-147-97.57-46.46-34.61-90.18-71.3-130.94-109.76-40.78-38.45-78.62-78.66-113.7-120.18,34.85,41.63,72.46,81.97,113.05,120.57,40.57,38.6,84.11,75.46,130.42,110.25,46.3,34.8,95.35,67.53,146.63,98.16,51.27,30.64,104.74,59.18,159.73,85.91,54.99,26.75,111.5,51.7,168.89,75.43,57.39,23.73,115.65,46.23,174.24,68.19,117.18,43.93,235.71,85.77,351.61,131.38l3.07-4.43Z"></path>
  <path class="cls-1" d="m2666.78,706.33c-119.84-48.34-243.02-91.59-365.11-136.3-61.05-22.36-121.85-45.1-181.8-69.05-59.95-23.94-119.07-49.08-176.67-76.07-57.6-26.99-113.67-55.84-167.48-86.95-53.81-31.09-105.33-64.44-153.96-100.05-48.64-35.59-94.36-73.44-136.94-113.19-42.56-39.77-81.82-81.51-118.14-124.63,36.09,43.23,75.13,85.1,117.49,125.02,42.38,39.9,87.94,77.91,136.43,113.69,48.48,35.79,99.88,69.34,153.59,100.64,53.71,31.31,109.7,60.38,167.24,87.59,57.53,27.21,116.59,52.56,176.48,76.71,59.89,24.15,120.61,47.11,181.57,69.66,121.9,45.1,244.79,88.71,364.15,137.33l3.16-4.39Z"></path>
  <path class="cls-1" d="m2669.5,729.19c-123.26-51.97-250.97-97.4-378.01-143.53-63.53-23.07-126.92-46.35-189.53-70.77-62.61-24.41-124.44-49.96-184.75-77.43-60.31-27.46-119.09-56.84-175.52-88.63-56.43-31.78-110.47-65.97-161.43-102.61-50.97-36.63-98.84-75.7-143.31-116.85-44.46-41.16-85.35-84.48-123.08-129.27,37.5,44.91,78.17,88.35,122.44,129.66,44.28,41.3,91.97,80.54,142.8,117.36,50.81,36.83,104.75,71.22,161.08,103.21,56.33,32,115.04,61.6,175.29,89.27,60.25,27.68,122.02,53.44,184.56,78.06,62.54,24.63,125.85,48.1,189.27,71.37,126.82,46.52,254.2,92.3,376.92,144.52l3.26-4.35Z"></path>
  <path class="cls-1" d="m2668.13,751.34c-63.04-27.86-127.54-53.76-192.7-78.62-65.16-24.86-130.98-48.69-196.78-72.51-65.8-23.82-131.58-47.64-196.65-72.52-65.07-24.87-129.43-50.81-192.29-78.7-62.85-27.88-124.18-57.73-183.08-90.13-58.9-32.39-115.33-67.33-168.5-104.92-53.18-37.57-103.07-77.78-149.33-120.22-46.25-42.46-88.67-87.24-127.73-133.6,38.83,46.47,81.03,91.38,127.09,134,46.07,42.6,95.79,82.98,148.83,120.74,53.03,37.78,109.35,72.93,168.16,105.52,58.81,32.61,120.07,62.68,182.86,90.77,62.79,28.1,127.1,54.25,192.09,79.33,65,25.09,130.7,49.1,196.37,73.11,65.68,24.01,131.35,48.01,196.31,73.03,64.96,25.02,129.21,51.06,191.96,79.03l3.38-4.3Z"></path>
  <path class="cls-1" d="m2666.23,774.37c-64.28-29.93-130.38-57.56-197.38-83.81-67-26.26-134.9-51.15-202.92-75.8-68.02-24.66-136.17-49.08-203.69-74.45-67.51-25.37-134.4-51.69-199.8-79.99-65.4-28.29-129.29-58.59-190.68-91.57-61.39-32.97-120.24-68.64-175.64-107.15-55.42-38.49-107.36-79.82-155.42-123.55-48.06-43.75-92.03-90-132.41-137.93,40.15,48.04,83.9,94.42,131.77,138.32,47.87,43.89,99.65,85.39,154.94,124.07,55.27,38.7,114.01,74.58,175.32,107.76,61.3,33.2,125.14,63.71,190.47,92.21,65.34,28.52,132.17,55.05,199.6,80.62,67.44,25.58,135.49,50.19,203.38,75.03,67.88,24.84,135.61,49.9,202.4,76.3,66.78,26.4,132.61,54.15,196.57,84.18l3.51-4.24Z"></path>
  <path class="cls-1" d="m2668.09,800.56c-65.39-32.41-133.07-62.12-201.94-90.06-68.88-27.95-138.95-54.15-209.32-79.83-70.37-25.68-141.05-50.84-211.2-76.78-70.15-25.95-139.78-52.71-207.95-81.46-68.17-28.74-134.87-59.49-198.99-93.08-64.13-33.57-125.64-70-183.51-109.49-57.89-39.47-112.09-81.99-162.15-127.12-50.06-45.14-95.72-92.99-137.55-142.63,41.6,49.75,87.04,97.73,136.91,143.03,49.86,45.29,103.91,87.99,161.67,127.65,57.74,39.69,119.15,76.32,183.2,110.1,64.04,33.8,130.68,64.77,198.79,93.72,68.11,28.96,137.68,55.93,207.74,82.08,70.07,26.15,140.64,51.5,210.86,77.35,70.22,25.85,140.1,52.21,208.73,80.3,68.63,28.08,136,57.9,201.05,90.38l3.67-4.16Z"></path>
  <path class="cls-1" d="m2666.72,826.79c-66.21-34.98-135.2-66.9-205.72-96.64-70.53-29.76-142.58-57.36-215.13-84.13-72.55-26.77-145.61-52.72-218.25-79.27-72.64-26.55-144.88-53.75-215.7-82.92-70.81-29.16-140.21-60.33-206.97-94.47-66.76-34.12-130.86-71.24-191.12-111.64-60.28-40.38-116.68-84.03-168.66-130.49-51.99-46.46-99.28-95.84-142.5-147.12,42.98,51.39,90.06,100.9,141.86,147.52,51.79,46.62,108.03,90.44,168.19,131.02,60.13,40.6,124.13,77.93,190.82,112.26,66.68,34.36,136.02,65.74,206.77,95.11,70.76,29.39,142.93,56.79,215.47,83.54,72.55,26.75,145.49,52.88,217.87,79.82,72.38,26.94,144.22,54.7,214.48,84.58,70.25,29.86,138.91,61.87,204.74,96.91l3.83-4.08Z"></path>
  <path class="cls-1" d="m2669.3,857.08c-66.81-38.02-136.98-72.6-209.13-104.53-72.15-31.95-146.26-61.3-221.11-89.41-149.69-56.25-302.49-107.65-449.96-166.97-73.72-29.63-146.08-61.24-215.76-95.96-69.68-34.7-136.64-72.54-199.57-113.92-62.95-41.35-121.8-86.21-175.92-134.12-54.13-47.91-103.24-98.96-147.98-152.06,44.51,53.2,93.4,104.39,147.35,152.46,53.93,48.06,112.63,93.11,175.45,134.65,62.8,41.57,129.67,79.63,199.28,114.54,69.61,34.94,141.92,66.76,215.57,96.6,147.35,59.75,299.98,111.55,449.3,168.12,74.66,28.28,148.53,57.76,220.38,89.83,71.85,32.04,141.66,66.69,208.07,104.75l4.02-3.98Z"></path>
  <path class="cls-1" d="m2667.03,886.81c-67.08-41.03-138.09-78.32-211.57-112.5-73.48-34.21-149.36-65.37-226.27-94.89-153.82-59.08-311.78-111.68-464.66-171.89-76.42-30.09-151.57-62.08-223.99-97.32-72.43-35.21-142.1-73.69-207.54-115.95-65.47-42.22-126.64-88.21-182.78-137.46-56.15-49.25-106.97-101.87-153.14-156.66,45.94,54.9,96.54,107.65,152.51,157.06,55.95,49.41,116.98,95.58,182.33,138,65.32,42.46,134.91,81.16,207.26,116.58,72.36,35.45,147.45,67.67,223.81,97.96,152.75,60.63,310.53,113.62,463.93,173.01,76.7,29.68,152.32,60.96,225.47,95.27,73.15,34.27,143.78,71.62,210.44,112.66l4.2-3.87Z"></path>
  <path class="cls-1" d="m2667.4,920.58c-67.05-44.44-138.68-84.87-213.34-121.73-74.67-36.88-152.31-70.21-231.32-101.43-158.05-62.5-321.51-116.59-480.23-177.79-79.34-30.6-157.49-63.01-232.91-98.78-75.41-35.74-148.04-74.89-216.24-118.07-68.23-43.14-131.96-90.32-190.31-141.01-58.36-50.7-111.05-105.01-158.77-161.64,47.49,56.74,99.96,111.18,158.14,162.04,58.17,50.85,121.75,98.21,189.86,141.55,68.09,43.38,140.63,82.74,215.98,118.7,75.35,35.99,153.45,68.62,232.72,99.42,158.58,61.61,321.83,116.09,479.42,178.88,78.78,31.37,156.13,64.81,230.45,101.77,74.31,36.94,145.53,77.4,212.14,121.82l4.41-3.74Z"></path>
  <path class="cls-1" d="m2666.71,956.52c-66.68-48.01-138.6-91.84-214.2-131.61-37.79-19.9-76.49-38.82-115.86-56.89-39.38-18.06-79.43-35.28-119.93-51.85-81.01-33.16-163.79-63.73-246.85-93.76-83.06-30.03-166.44-59.54-248.74-90.68-82.29-31.13-163.49-63.97-241.94-100.26-78.45-36.26-154.11-76.04-225.14-120.13-71.06-44.04-137.41-92.39-198.03-144.53C995.38,114.65,940.78,58.63,891.49.13c49.06,58.61,103.45,114.76,163.9,167.08,60.44,52.3,126.65,100.84,197.6,145.09,70.92,44.29,146.5,84.28,224.89,120.76,78.39,36.51,159.54,69.56,241.75,100.9,82.23,31.34,165.51,61.05,248.44,91.26,82.92,30.21,165.51,60.94,246.26,94.24,40.37,16.64,80.28,33.91,119.5,52.03,39.21,18.12,77.73,37.08,115.34,57,75.22,39.83,146.71,83.66,212.94,131.64l4.61-3.6Z"></path>
  <path class="cls-1" d="m2667.29,996.69c-65.94-51.91-137.78-99.53-214.07-142.64-76.26-43.16-156.87-81.83-239.78-117.26-82.94-35.44-168.16-67.69-253.92-98.97-85.77-31.28-172.11-61.61-257.51-93.38-85.4-31.74-169.86-65.01-251.56-101.84-81.7-36.79-160.61-77.2-234.69-122.23-74.12-44.97-143.3-94.54-206.37-148.21C946.33,118.47,889.66,60.63,838.69.13c50.74,60.61,107.2,118.58,170.08,172.44,62.89,53.83,131.94,103.6,205.95,148.77,73.98,45.23,152.82,85.85,234.45,122.86,81.64,37.05,166.04,70.53,251.36,102.48,85.32,31.97,171.57,62.49,257.17,93.95,85.6,31.45,170.61,63.86,253.26,99.41,82.63,35.55,162.88,74.3,238.74,117.49,75.88,43.14,147.27,90.75,212.76,142.6l4.82-3.44Z"></path>
  <path class="cls-1" d="m2668.11,1040.96c-32.42-28.02-66.43-54.99-101.95-80.79-35.51-25.81-72.52-50.44-110.82-73.88-76.59-46.9-158.37-88.86-243.08-126.93-42.36-19.05-85.44-37.16-129-54.6-43.56-17.43-87.59-34.16-131.84-50.54-88.51-32.76-177.93-64.05-266.56-96.54-88.61-32.49-176.52-66.17-261.64-103.56-85.12-37.34-167.48-78.37-244.82-124.34-38.67-22.96-76.08-47.13-112.02-72.49-35.94-25.35-70.39-51.89-103.25-79.51C897.5,122.48,838.62,62.75,785.89.14c52.5,62.72,111.17,122.6,176.64,178.06,32.77,27.7,67.14,54.33,103.01,79.78,35.86,25.45,73.22,49.72,111.84,72.78,77.23,46.17,159.52,87.42,244.59,124.98,85.06,37.61,172.91,71.5,261.44,104.18,88.54,32.69,177.84,64.17,266.18,97.1,44.16,16.46,88.09,33.28,131.53,50.77,43.43,17.5,86.38,35.67,128.58,54.78,84.4,38.18,165.8,80.2,241.97,127.1,38.09,23.44,74.88,48.06,110.16,73.85,35.29,25.78,69.07,52.72,101.26,80.7l5.03-3.27Z"></path>
  <path class="cls-1" d="m2668.97,1089.81c-31.66-30.2-65.04-59.38-100.11-87.37-35.06-27.99-71.82-54.79-110.08-80.29-38.26-25.51-78.04-49.73-119.05-72.68-41.01-22.96-83.26-44.65-126.42-65.24-86.33-41.2-176.29-77.89-267.54-112.41-91.28-34.52-183.87-66.96-275.87-100.29-91.99-33.32-183.43-67.56-272.22-105.47-88.77-37.86-174.78-79.54-255.59-126.45-40.4-23.44-79.5-48.16-117.02-74.17-37.53-26-73.5-53.28-107.74-81.73C848.92,126.72,787.69,64.98,733.09.14c54.36,64.95,115.39,126.83,183.62,183.99,34.16,28.54,70.05,55.91,107.51,82,37.46,26.1,76.5,50.92,116.85,74.46,80.71,47.12,166.66,89.02,255.37,127.09,88.73,38.12,180.11,72.57,272,106.09,91.9,33.52,184.36,66.15,275.44,100.83,91.05,34.68,180.74,71.5,266.74,112.78,42.99,20.63,85.05,42.36,125.86,65.33,40.81,22.97,80.38,47.19,118.42,72.69,38.05,25.5,74.57,52.27,109.41,80.23,34.84,27.96,67.99,57.1,99.42,87.24l5.23-3.08Z"></path>
  <path class="cls-1" d="m2668.1,1142.08c-30.75-32.41-63.3-63.86-97.71-94.11-34.4-30.26-70.67-59.33-108.68-87.04-38-27.72-77.75-54.09-118.97-79.06-41.22-24.98-83.92-48.57-127.74-70.88-87.66-44.66-179.8-84.09-273.73-120.65-93.94-36.6-189.72-70.39-285.12-104.66-95.39-34.27-190.48-69.1-282.98-107.58-46.24-19.23-91.83-39.37-136.41-60.7-44.58-21.33-88.13-43.89-130.33-67.8-84.42-47.79-163.32-101.16-234.63-159.83-35.64-29.34-69.42-59.95-101.31-91.63-31.9-31.68-61.91-64.42-90.19-97.99,28.17,33.62,58.07,66.43,89.86,98.18,31.79,31.75,65.47,62.44,101.02,91.86,71.14,58.84,149.91,112.4,234.24,160.4,42.16,24.01,85.67,46.68,130.21,68.12,44.55,21.44,90.11,41.68,136.32,61.02,92.44,38.69,187.47,73.73,282.76,108.19,95.3,34.47,190.92,68.43,284.64,105.18,93.71,36.71,185.55,76.26,272.85,120.98,43.64,22.34,86.14,45.95,127.15,70.94,41.01,24.98,80.54,51.34,118.31,79.04,37.78,27.7,73.82,56.73,107.99,86.95,34.18,30.22,66.5,61.61,97.03,93.96l5.43-2.88Z"></path>
  <path class="cls-1" d="m2669.37,1202.62c-29.6-34.82-61.06-68.75-94.53-101.53-33.47-32.78-68.95-64.41-106.41-94.66-74.89-60.54-157.95-115.26-246.64-164.07-88.7-48.86-182.98-91.68-279.7-130.8-96.74-39.16-195.9-74.71-295.03-110.18-99.12-35.47-198.25-70.99-294.88-110.12-48.31-19.56-95.99-40.01-142.66-61.7-46.67-21.69-92.33-44.61-136.58-69-88.5-48.75-171.25-103.5-245.77-164.07-37.29-30.26-72.58-61.91-105.83-94.71-33.26-32.81-64.49-66.77-93.85-101.62,29.24,34.91,60.36,68.93,93.52,101.81,33.15,32.88,68.34,64.6,105.55,94.95,74.36,60.74,156.99,115.69,245.4,164.66,44.2,24.49,89.83,47.53,136.47,69.32,46.64,21.8,94.29,42.36,142.57,62.02,96.57,39.34,195.63,75.07,294.63,110.73,99,35.66,198,71.38,294.48,110.67,96.46,39.26,190.42,82.18,278.72,131.08,88.29,48.85,170.89,103.55,245.33,164.02,37.24,30.21,72.49,61.8,105.72,94.53,33.24,32.73,64.48,66.6,93.87,101.36l5.62-2.67Z"></path>
  <path class="cls-1" d="m2616.7,1202.62c-29.61-34.82-61.06-68.76-94.53-101.55-33.46-32.79-68.93-64.43-106.39-94.68-74.89-60.55-157.93-115.3-246.62-164.11-88.69-48.87-183-91.69-279.73-130.8-96.76-39.15-195.95-74.67-295.1-110.11-99.15-35.44-198.3-70.93-294.96-110.05-48.32-19.55-96.01-39.99-142.68-61.68-46.68-21.68-92.34-44.61-136.59-69.01-88.49-48.77-171.24-103.53-245.75-164.12-37.28-30.27-72.56-61.92-105.81-94.74-33.26-32.81-64.48-66.78-93.85-101.63,29.25,34.91,60.36,68.94,93.52,101.82,33.15,32.88,68.33,64.62,105.53,94.97,74.34,60.76,156.97,115.72,245.37,164.7,44.2,24.5,89.83,47.54,136.48,69.33,46.64,21.8,94.3,42.35,142.6,62,96.6,39.33,195.68,75.03,294.71,110.65,99.03,35.63,198.05,71.32,294.56,110.6,96.48,39.24,190.46,82.16,278.75,131.07,88.29,48.85,170.88,103.58,245.31,164.06,37.23,30.22,72.47,61.81,105.71,94.55,33.24,32.74,64.47,66.61,93.86,101.37l5.62-2.67Z"></path>
  <path class="cls-1" d="m2564.02,1202.62c-29.61-34.82-61.06-68.76-94.53-101.56-33.46-32.8-68.92-64.44-106.37-94.71-74.88-60.56-157.91-115.33-246.59-164.15-88.68-48.89-183.01-91.7-279.76-130.79-96.78-39.13-196-74.62-295.18-110.03-99.18-35.41-198.35-70.87-295.03-109.97-48.33-19.54-96.03-39.98-142.71-61.67-46.68-21.68-92.35-44.61-136.6-69.01-88.47-48.79-171.23-103.56-245.72-164.17-37.28-30.28-72.55-61.94-105.79-94.76-33.25-32.82-64.48-66.79-93.84-101.64,29.25,34.91,60.37,68.94,93.51,101.83,33.14,32.89,68.32,64.63,105.51,95,74.33,60.78,156.96,115.75,245.35,164.75,44.21,24.5,89.84,47.54,136.49,69.33,46.65,21.79,94.32,42.34,142.62,61.99,96.62,39.31,195.72,74.98,294.78,110.58,99.06,35.6,198.11,71.26,294.63,110.52,96.5,39.23,190.49,82.13,278.78,131.06,88.29,48.86,170.86,103.61,245.28,164.11,37.22,30.23,72.46,61.83,105.69,94.58,33.24,32.74,64.47,66.62,93.86,101.39l5.62-2.67Z"></path>
  <path class="cls-1" d="m2511.35,1202.62c-29.61-34.83-61.06-68.77-94.52-101.57-33.45-32.8-68.91-64.46-106.36-94.73-74.88-60.57-157.88-115.37-246.57-164.2-88.68-48.91-183.02-91.71-279.79-130.78-96.8-39.11-196.05-74.58-295.25-109.96-99.21-35.38-198.41-70.82-295.11-109.9-48.34-19.53-96.05-39.97-142.73-61.65-46.69-21.68-92.36-44.61-136.61-69.02-88.47-48.81-171.21-103.59-245.7-164.22-37.27-30.29-72.53-61.96-105.77-94.79C529.69,68.99,498.47,35.02,469.1.16c29.25,34.91,60.37,68.95,93.51,101.85,33.14,32.9,68.31,64.65,105.49,95.02,74.32,60.79,156.94,115.78,245.32,164.8,44.21,24.51,89.84,47.55,136.5,69.34,46.66,21.79,94.33,42.33,142.65,61.97,96.64,39.29,195.77,74.94,294.86,110.5,99.08,35.57,198.16,71.2,294.71,110.45,96.52,39.21,190.53,82.11,278.81,131.05,88.29,48.87,170.84,103.65,245.26,164.15,37.22,30.24,72.44,61.85,105.67,94.6,33.23,32.75,64.46,66.64,93.86,101.4l5.62-2.67Z"></path>
  <path class="cls-1" d="m2458.67,1202.62c-29.61-34.83-61.07-68.78-94.52-101.58-33.45-32.81-68.9-64.47-106.34-94.75-74.88-60.58-157.86-115.4-246.55-164.24-88.67-48.93-183.04-91.72-279.82-130.78-96.82-39.1-196.1-74.53-295.33-109.88-99.23-35.35-198.46-70.76-295.18-109.82-48.35-19.52-96.06-39.95-142.76-61.64-46.69-21.68-92.37-44.61-136.61-69.02-88.47-48.82-171.19-103.63-245.68-164.26-37.26-30.29-72.52-61.98-105.75-94.81C476.89,69,445.67,35.02,416.3.16c29.26,34.92,60.37,68.96,93.5,101.86,33.13,32.9,68.29,64.66,105.47,95.04,74.31,60.81,156.92,115.81,245.3,164.84,44.2,24.52,89.84,47.56,136.5,69.34,46.66,21.79,94.35,42.33,142.67,61.96,96.66,39.28,195.82,74.89,294.94,110.43,99.11,35.54,198.22,71.14,294.78,110.37,96.54,39.2,190.57,82.08,278.84,131.05,88.3,48.88,170.83,103.68,245.24,164.19,37.21,30.25,72.43,61.87,105.65,94.62,33.23,32.76,64.45,66.65,93.85,101.41l5.62-2.67Z"></path>
  <path class="cls-1" d="m2406,1202.62c-29.62-34.83-61.07-68.78-94.51-101.6-33.44-32.82-68.89-64.49-106.32-94.78-74.87-60.59-157.84-115.44-246.53-164.28-88.66-48.94-183.05-91.73-279.85-130.77-96.84-39.08-196.15-74.49-295.4-109.81-99.26-35.32-198.52-70.7-295.26-109.75-96.72-39-190.91-81.78-279.4-130.65-88.47-48.83-171.18-103.66-245.65-164.3-37.25-30.3-72.5-61.99-105.73-94.83C424.1,69.01,392.88,35.03,363.5.17c29.26,34.92,60.37,68.96,93.5,101.87,33.13,32.91,68.28,64.68,105.45,95.07,74.31,60.82,156.89,115.85,245.28,164.89,88.41,49.08,182.55,92.08,279.21,131.3,96.68,39.26,195.87,74.85,295.01,110.35,99.14,35.51,198.27,71.08,294.86,110.3,96.56,39.18,190.61,82.06,278.87,131.04,88.3,48.88,170.81,103.71,245.22,164.24,37.2,30.26,72.42,61.88,105.63,94.65,33.22,32.76,64.45,66.66,93.85,101.42l5.62-2.67Z"></path>
  <path class="cls-1" d="m2353.33,1202.62c-29.62-34.83-61.07-68.79-94.51-101.61-33.44-32.82-68.87-64.5-106.3-94.8-74.87-60.6-157.81-115.47-246.51-164.33-88.66-48.96-183.06-91.73-279.89-130.76-96.86-39.06-196.19-74.44-295.48-109.73-99.29-35.29-198.57-70.64-295.33-109.67-96.73-38.99-190.95-81.76-279.43-130.64-88.47-48.84-171.16-103.69-245.63-164.35-37.25-30.31-72.49-62.01-105.71-94.86C371.3,69.02,340.08,35.04,310.7.17c29.26,34.92,60.37,68.97,93.5,101.89,33.12,32.92,68.27,64.69,105.43,95.09,74.31,60.83,156.87,115.88,245.26,164.93,88.4,49.1,182.56,92.09,279.24,131.29,96.7,39.24,195.92,74.8,295.09,110.28,99.17,35.48,198.33,71.02,294.94,110.22,96.57,39.16,190.64,82.03,278.9,131.03,88.3,48.89,170.79,103.75,245.2,164.28,37.19,30.27,72.4,61.9,105.61,94.67,33.22,32.77,64.44,66.67,93.84,101.44l5.62-2.67Z"></path>
  <path class="cls-1" d="m2300.65,1202.62c-29.62-34.83-61.07-68.79-94.5-101.62-33.43-32.83-68.86-64.51-106.28-94.82-74.86-60.61-157.79-115.51-246.49-164.37-88.65-48.97-183.07-91.75-279.92-130.76-96.88-39.05-196.24-74.4-295.56-109.66-99.31-35.26-198.63-70.58-295.41-109.6-96.75-38.97-190.99-81.73-279.46-130.64-88.48-48.84-171.14-103.73-245.61-164.39-37.24-30.32-72.47-62.03-105.69-94.88C318.5,69.03,287.29,35.04,257.9.18c29.26,34.92,60.37,68.98,93.49,101.9,33.12,32.92,68.26,64.71,105.41,95.11,74.3,60.84,156.85,115.92,245.24,164.97,88.39,49.12,182.57,92.1,279.27,131.28,96.72,39.23,195.97,74.76,295.16,110.2,99.19,35.45,198.38,70.96,295.01,110.15,96.6,39.15,190.68,82.02,278.93,131.03,88.3,48.9,170.77,103.78,245.18,164.32,37.19,30.28,72.39,61.92,105.59,94.7,33.21,32.78,64.43,66.68,93.84,101.45l5.62-2.67Z"></path>
  <path class="cls-1" d="m2247.98,1202.62c-29.63-34.84-61.07-68.8-94.5-101.63-33.43-32.83-68.85-64.53-106.26-94.85-37.42-30.31-76.88-59.19-118.04-86.62-41.17-27.42-84.09-53.34-128.43-77.8-88.66-48.98-183.08-91.76-279.95-130.75-96.9-39.03-196.29-74.35-295.63-109.58-99.34-35.23-198.68-70.52-295.48-109.52-96.77-38.96-191.02-81.71-279.5-130.63-88.48-48.85-171.12-103.76-245.59-164.44-37.23-30.33-72.46-62.05-105.68-94.9C265.7,69.05,234.49,35.05,205.11.18c29.27,34.92,60.37,68.98,93.49,101.91,33.11,32.93,68.25,64.72,105.4,95.14,74.3,60.85,156.82,115.95,245.21,165.02,88.38,49.14,182.59,92.11,279.3,131.28,96.74,39.21,196.02,74.71,295.24,110.13,99.22,35.42,198.44,70.91,295.09,110.07,96.62,39.13,190.71,82,278.96,131.02,44.14,24.47,86.85,50.4,127.8,77.81,40.94,27.42,80.17,56.28,117.36,86.55,37.18,30.28,72.37,61.94,105.57,94.72,33.21,32.78,64.43,66.69,93.84,101.46l5.62-2.67Z"></path>
  <path class="cls-1" d="m2195.3,1202.62c-29.63-34.84-61.07-68.81-94.5-101.65-33.42-32.84-68.84-64.54-106.24-94.87-37.43-30.31-76.87-59.21-118.03-86.64-41.16-27.43-84.08-53.36-128.42-77.82-44.34-24.46-90.09-47.46-136.9-69.13-46.8-21.69-94.62-42.11-143.08-61.61-96.92-39.02-196.34-74.3-295.71-109.5-99.37-35.2-198.74-70.46-295.56-109.44-96.79-38.94-191.06-81.68-279.53-130.62-88.48-48.86-171.11-103.79-245.57-164.48-37.23-30.34-72.45-62.06-105.66-94.93C212.91,69.06,181.69,35.06,152.31.18c29.27,34.93,60.37,68.99,93.48,101.92,33.11,32.94,68.23,64.74,105.38,95.16,74.29,60.86,156.8,115.99,245.19,165.06,88.38,49.15,182.6,92.11,279.33,131.27,96.76,39.2,196.06,74.67,295.31,110.05,99.25,35.39,198.49,70.85,295.16,110,96.64,39.11,190.74,81.98,278.99,131.01,44.14,24.48,86.85,50.41,127.79,77.83,40.94,27.42,80.15,56.3,117.35,86.58,37.17,30.29,72.36,61.95,105.56,94.74,33.2,32.79,64.42,66.7,93.83,101.48l5.62-2.67Z"></path>
  <path class="cls-1" d="m2142.63,1202.62c-29.63-34.84-61.07-68.81-94.49-101.66-33.42-32.85-68.83-64.56-106.22-94.89-37.43-30.31-76.86-59.23-118.01-86.66-41.16-27.44-84.07-53.38-128.41-77.84-44.34-24.47-90.09-47.47-136.91-69.14-46.81-21.69-94.64-42.11-143.1-61.6-96.94-39-196.39-74.26-295.78-109.43-99.4-35.17-198.79-70.4-295.63-109.37-96.81-38.93-191.1-81.66-279.56-130.62-88.48-48.87-171.09-103.83-245.55-164.52-37.22-30.35-72.43-62.08-105.64-94.95C160.11,69.07,128.9,35.06,99.51.19c29.27,34.93,60.37,69,93.48,101.94,33.1,32.94,68.22,64.75,105.36,95.19,74.29,60.87,156.77,116.02,245.17,165.11,88.37,49.17,182.61,92.12,279.36,131.26,96.78,39.18,196.11,74.62,295.39,109.98,99.28,35.36,198.55,70.79,295.24,109.92,48.34,19.56,96.02,40.03,142.67,61.77,46.66,21.72,92.22,44.76,136.36,69.24,44.14,24.48,86.84,50.42,127.78,77.85,40.94,27.43,80.13,56.32,117.33,86.6,37.17,30.3,72.35,61.97,105.54,94.77,33.2,32.8,64.41,66.71,93.83,101.49l5.62-2.67Z"></path>
  <path class="cls-1" d="m2089.95,1202.62c-29.63-34.84-61.07-68.82-94.49-101.67-33.41-32.85-68.81-64.57-106.2-94.92-37.43-30.31-76.85-59.24-118-86.69-41.15-27.45-84.07-53.39-128.41-77.86-44.34-24.47-90.09-47.48-136.92-69.15-46.82-21.69-94.65-42.1-143.13-61.58-96.96-38.98-196.43-74.21-295.86-109.35-99.42-35.14-198.85-70.34-295.71-109.29-96.83-38.91-191.14-81.63-279.59-130.61-44.23-24.46-87.02-50.4-128.03-77.84-41-27.45-80.28-56.37-117.5-86.72-37.21-30.36-72.42-62.1-105.62-94.98C107.31,69.08,76.1,35.07,46.71.19c29.27,34.93,60.37,69,93.48,101.95,33.1,32.95,68.21,64.77,105.34,95.21,37.13,30.44,76.34,59.45,117.28,87,40.95,27.55,83.68,53.59,127.87,78.15,88.36,49.19,182.62,92.13,279.39,131.26,96.8,39.16,196.16,74.58,295.47,109.9,99.3,35.33,198.6,70.73,295.31,109.85,48.35,19.55,96.04,40.02,142.69,61.75,46.66,21.71,92.22,44.76,136.36,69.25,44.14,24.48,86.84,50.44,127.77,77.87,40.93,27.44,80.12,56.34,117.32,86.62,37.16,30.31,72.33,61.99,105.52,94.79,33.19,32.8,64.41,66.72,93.83,101.5l5.62-2.67Z"></path>
  <path class="cls-1" d="m2037.28,1202.62c-29.5-34.68-60.78-68.52-94.02-101.23-33.24-32.72-68.44-64.32-105.61-94.56-37.24-30.19-76.41-59.04-117.33-86.41-40.91-27.37-83.57-53.25-127.66-77.66-44.09-24.41-89.58-47.38-136.14-69.02-46.56-21.64-94.15-42.01-142.38-61.45-96.47-38.89-195.47-74-294.47-108.95-99-34.95-198.03-69.89-294.59-108.48-96.53-38.55-190.59-80.84-278.98-129.24-88.39-48.35-171.04-102.71-245.61-162.83-37.29-30.05-72.6-61.48-105.92-94.05C61.25,76.16,29.9,42.45.36,7.87c29.42,34.64,60.66,68.41,93.89,101.06,33.22,32.64,68.44,64.15,105.64,94.29,74.4,60.29,156.93,114.85,245.23,163.41,88.31,48.62,182.32,91.13,278.79,129.89,96.5,38.8,195.47,73.95,294.35,109.08,98.87,35.14,197.7,70.42,293.91,109.44,48.1,19.5,95.54,39.93,141.93,61.62,46.39,21.69,91.7,44.69,135.58,69.12,43.89,24.43,86.33,50.32,127.03,77.68,40.7,27.36,79.64,56.18,116.65,86.34,36.95,30.21,71.92,61.76,104.93,94.43,33.02,32.67,64.08,66.44,93.36,101.07l5.62-2.67Z"></path>
  <path class="cls-1" d="m1984.6,1202.62c-56.75-66.71-120.12-130.36-191.2-188.88-35.53-29.25-72.85-57.27-111.82-83.92-38.97-26.66-79.58-51.95-121.57-75.86-83.97-47.86-173.41-90.08-265.61-128.29-92.22-38.23-187.1-72.62-282.29-106.33-95.19-33.72-190.79-66.79-284.51-102.71-93.72-35.87-185.61-74.63-272.98-118.69-43.68-22.01-86.21-45.31-127.27-70.02-41.06-24.7-80.62-50.8-118.45-78.26-37.84-27.46-73.93-56.26-108.2-86.26C66.45,133.42,34.01,102.25,3.34,70.13c30.56,32.18,62.89,63.42,97.06,93.48,34.16,30.07,70.17,58.96,107.93,86.5,37.75,27.55,77.25,53.75,118.25,78.55,40.99,24.81,83.48,48.21,127.12,70.33,87.28,44.27,179.12,83.24,272.77,119.32,93.66,36.13,189.17,69.4,284.23,103.3,95.05,33.89,189.74,68.44,281.7,106.8,91.93,38.33,181.03,80.64,264.6,128.54,41.79,23.93,82.19,49.22,120.94,75.87,38.75,26.64,75.85,54.64,111.16,83.86,70.62,58.46,133.55,122.01,189.88,188.61l5.62-2.67Z"></path>
  <path class="cls-1" d="m1931.93,1202.62c-27.41-32.22-56.35-63.72-86.95-94.28-30.61-30.55-62.85-60.2-96.98-88.58-34.07-28.41-69.81-55.7-107.11-81.71-37.3-26.02-76.15-50.77-116.33-74.23-40.18-23.46-81.68-45.63-124.2-66.62-42.52-20.99-86.05-40.8-130.29-59.65-88.47-37.74-179.75-71.53-271.57-104.28-91.83-32.75-184.27-64.5-275.39-98.3-91.1-33.78-180.85-69.78-266.93-110.36-43.03-20.28-85.14-41.68-125.99-64.37-40.86-22.68-80.46-46.64-118.55-71.9-38.09-25.26-74.66-51.81-109.56-79.55-34.9-27.74-68.13-56.67-99.68-86.6,31.44,30,64.57,59,99.38,86.82,34.8,27.82,71.29,54.46,109.31,79.81,38.01,25.35,77.56,49.41,118.36,72.19,40.8,22.78,82.85,44.29,125.85,64.67,86,40.78,175.69,76.99,266.71,110.98,91.04,34,183.39,65.94,275.07,98.87,91.67,32.93,182.75,66.87,270.94,104.74,88.2,37.8,173.51,79.52,253.47,126.51,39.99,23.47,78.63,48.23,115.72,74.24,37.09,26.01,72.61,53.27,106.46,81.66,33.91,28.35,65.93,57.97,96.32,88.48,30.39,30.52,59.11,61.96,86.32,94.13l5.62-2.67Z"></path>
  <path class="cls-1" d="m1879.26,1202.62c-26.5-31.14-54.4-61.61-83.87-91.2l-11.13-11.06-5.56-5.53c-1.84-1.85-3.8-3.63-5.7-5.45-7.66-7.23-15.26-14.49-22.98-21.69l-23.62-21.3c-1.94-1.79-4.01-3.5-6.02-5.25l-6.07-5.22-12.14-10.43c-32.7-27.61-66.96-54.18-102.7-79.58-35.73-25.4-72.94-49.62-111.42-72.63-76.96-46.05-159.03-87.11-243.97-124.26-84.95-37.2-172.71-70.58-261.29-102.49-88.58-31.94-177.97-62.54-266.43-94.6-88.45-32.05-176.01-65.6-260.55-103.16-84.55-37.49-166.07-78.98-242.32-125.5-38.13-23.24-74.96-47.69-110.28-73.32-35.33-25.63-69.15-52.42-101.41-80.25,32.15,27.9,65.88,54.77,101.12,80.47,35.24,25.71,71.98,50.25,110.04,73.58,76.12,46.7,157.53,88.39,242,126.09,84.46,37.76,171.95,71.52,260.31,103.77,88.37,32.26,177.65,63.06,266.07,95.17,88.42,32.08,175.97,65.62,260.64,102.93,84.67,37.27,166.39,78.41,242.96,124.5,38.29,23.02,75.29,47.25,110.82,72.64,35.53,25.39,69.58,51.94,102.06,79.53l12.06,10.42,6.03,5.21c2,1.74,4.05,3.46,5.98,5.24l23.46,21.27c7.66,7.19,15.21,14.45,22.82,21.66,1.88,1.82,3.83,3.59,5.66,5.44l5.52,5.52,11.05,11.04c29.25,29.56,56.95,59.98,83.24,91.07l5.62-2.67Z"></path>
  <path class="cls-1" d="m1826.58,1202.62c-25.62-30.11-52.54-59.58-80.92-88.26l-10.72-10.71c-3.58-3.56-7.1-7.16-10.83-10.64l-22.1-21.04-22.73-20.66-2.85-2.58-2.92-2.53-5.84-5.06-11.68-10.13c-62.78-53.69-131.52-103.43-205.28-148.52-73.73-45.15-152.37-85.62-233.93-122.26-81.56-36.69-165.98-69.61-251.37-100.85-85.41-31.25-171.81-60.87-257.6-91.45-85.78-30.56-171-62.11-253.86-96.94-82.84-34.81-163.26-73.02-239.23-115.81C138.72,312.42,67.28,265.07,1.73,213.44c65.35,51.77,136.63,99.3,212.49,142.23,75.84,42.98,156.16,81.39,238.92,116.4,82.78,35.03,167.92,66.79,253.6,97.55,85.69,30.77,171.98,60.59,257.21,92,85.22,31.41,169.41,64.48,250.69,101.29,81.27,36.76,159.57,77.31,232.92,122.49,73.38,45.12,141.7,94.86,204.06,148.5l11.6,10.12,5.8,5.06,2.9,2.53,2.83,2.58,22.57,20.63,21.95,21.01c3.7,3.48,7.2,7.07,10.75,10.63l10.64,10.7c28.17,28.64,54.89,58.08,80.31,88.14l5.62-2.67Z"></path>
  <path class="cls-1" d="m1773.91,1202.62c-24.79-29.14-50.81-57.69-78.17-85.49l-10.34-10.38c-3.47-3.45-6.84-6.95-10.43-10.33l-21.29-20.42-21.89-20.06c-3.6-3.37-7.43-6.6-11.15-9.9l-11.24-9.84c-60.37-52.21-126.33-100.78-197.09-144.99-70.73-44.26-146.18-84.14-224.56-120.3-78.38-36.2-159.64-68.72-242.01-99.37-82.38-30.67-165.92-59.5-249.12-88.83-83.19-29.32-166.08-59.18-247.11-91.74-40.51-16.28-80.55-33.22-119.89-51.05-39.34-17.83-77.96-36.56-115.65-56.3C138.55,344.18,66.98,300.54.71,252.69c66.08,48,137.49,91.82,212.76,131.46,37.63,19.83,76.19,38.66,115.48,56.59,39.29,17.93,79.28,34.97,119.75,51.35,80.94,32.76,163.75,62.82,246.84,92.34,83.09,29.52,166.5,58.53,248.7,89.37,82.2,30.81,163.22,63.48,241.31,99.79,78.09,36.27,153.2,76.23,223.55,120.52,70.38,44.25,135.93,92.8,195.89,144.97l11.16,9.83c3.7,3.29,7.5,6.52,11.08,9.89l21.73,20.04,21.14,20.39c3.57,3.37,6.92,6.87,10.36,10.32l10.27,10.37c27.16,27.77,52.97,56.29,77.57,85.38l5.62-2.67Z"></path>
  <path class="cls-1" d="m1721.23,1202.62c-23.96-28.15-49.05-55.76-75.4-82.68l-9.96-10.05-4.98-5.03-2.5-2.51-2.56-2.47-20.49-19.78-21.04-19.45c-3.47-3.26-7.11-6.42-10.71-9.61l-10.8-9.55c-57.96-50.69-121.13-98.03-188.88-141.31-67.72-43.33-139.95-82.58-215.11-118.22-75.16-35.68-153.19-67.8-232.47-97.9-158.59-60.24-322.23-112.48-480.21-173.47-78.98-30.46-156.53-63.11-231.01-99.45-74.48-36.31-145.79-76.35-212.48-120.43,66.5,44.23,137.67,84.45,212.02,120.95,74.36,36.53,151.82,69.38,230.7,100.04,157.8,61.39,321.25,114.02,479.46,174.59,79.1,30.26,156.89,62.52,231.75,98.31,74.87,35.75,146.75,75.07,214.1,118.43,67.38,43.32,130.14,90.65,187.7,141.31l10.73,9.54c3.57,3.18,7.19,6.34,10.63,9.6l20.88,19.43,20.34,19.76,2.54,2.47,2.48,2.51,4.94,5.02,9.88,10.04c26.15,26.89,51.04,54.47,74.8,82.58l5.62-2.67Z"></path>
  <path class="cls-1" d="m1668.56,1202.62c-23.18-27.25-47.43-53.99-72.85-80.08l-9.61-9.74-4.8-4.87-2.4-2.44-2.47-2.4-19.75-19.19c-6.71-6.32-13.51-12.59-20.25-18.89-1.7-1.57-3.35-3.16-5.1-4.7l-5.2-4.64-10.4-9.27c-55.76-49.27-116.39-95.45-181.39-137.84-64.97-42.43-134.24-81.06-206.43-116.21-72.18-35.19-147.23-66.93-223.63-96.55-152.84-59.32-311.06-110.11-464.96-167.61-76.94-28.74-152.81-59.18-226.17-92.82-73.36-33.61-144.15-70.47-210.89-111.18,66.57,40.86,137.21,77.91,210.46,111.71,73.24,33.83,149.02,64.47,225.86,93.41,153.71,57.89,311.73,109.08,464.17,168.71,76.21,29.78,151,61.66,222.89,96.95,71.89,35.26,140.83,73.95,205.42,116.42,64.63,42.43,124.86,88.6,180.22,137.84l10.33,9.27,5.16,4.63c1.73,1.54,3.37,3.13,5.06,4.7l20.11,18.87,19.6,19.17,2.45,2.4,2.38,2.43,4.77,4.87,9.54,9.74c25.22,26.07,49.27,52.78,72.26,79.99l5.62-2.67Z"></path>
  <path class="cls-1" d="m1615.88,1202.62c-44.87-52.68-93.58-103.58-147.35-151.37-53.61-47.86-111.77-92.86-174.07-134.34-62.28-41.51-128.66-79.49-197.92-114.13-69.25-34.68-141.34-66.05-214.87-95.23-73.54-29.2-148.53-56.24-223.81-82.73-75.28-26.5-150.88-52.48-225.69-79.7-74.8-27.21-148.84-55.67-220.85-86.87-72.01-31.17-141.97-65.1-208.48-102.58,66.34,37.65,136.17,71.76,208.06,103.12,71.9,31.38,145.84,60.05,220.54,87.45,74.71,27.42,150.2,53.59,225.35,80.27,75.15,26.68,149.98,53.89,223.32,83.24,73.33,29.33,145.16,60.84,214.12,95.61,68.96,34.75,135.01,72.79,196.92,114.34,61.94,41.52,119.71,86.51,172.93,134.35,53.37,47.76,101.7,98.61,146.19,151.23l5.62-2.67Z"></path>
  <path class="cls-1" d="m1563.21,1202.62c-43.42-50.99-90.43-100.31-142.16-146.74-51.59-46.5-107.43-90.35-167.2-130.94-59.78-40.59-123.44-77.9-189.91-112.05-66.46-34.19-135.73-65.18-206.52-93.96-70.8-28.79-143.11-55.38-215.85-81.2-72.75-25.83-145.96-50.89-218.63-76.81-72.67-25.91-144.81-52.69-215.35-81.76-70.53-29.04-139.43-60.4-205.44-94.97,65.85,34.74,134.62,66.28,205.04,95.52,70.42,29.25,142.47,56.23,215.03,82.34,72.57,26.11,145.66,51.37,218.27,77.38,72.61,26,144.75,52.76,215.33,81.71,70.58,28.93,139.6,60.05,205.76,94.34,66.17,34.26,129.5,71.63,188.91,112.25,59.42,40.62,114.87,84.48,166.08,130.96,51.35,46.41,97.98,95.69,141.02,146.62l5.62-2.67Z"></path>
  <path class="cls-1" d="m1510.54,1202.62c-41.95-49.27-87.26-96.99-136.95-142.03-49.57-45.11-103.08-87.79-160.34-127.42-57.27-39.63-118.18-76.24-181.86-109.85-63.67-33.64-130.05-64.28-198.05-92.65-68-28.39-137.57-54.57-207.7-79.78-70.14-25.22-140.86-49.48-211.27-74.23-70.41-24.75-140.51-50.01-209.37-77.11-68.85-27.09-136.45-56.06-201.66-87.86,65.06,31.98,132.54,61.13,201.27,88.41,68.74,27.3,138.75,52.75,209.05,77.69,70.3,24.94,140.9,49.39,210.9,74.79,69.99,25.39,139.38,51.73,207.16,80.27,67.78,28.51,133.91,59.29,197.28,93.02,63.38,33.71,123.96,70.38,180.87,110.05,56.91,39.67,110.04,82.36,159.23,127.45,49.32,45.03,94.25,92.71,135.83,141.93l5.62-2.67Z"></path>
  <path class="cls-1" d="m1457.86,1202.62c-40.58-47.67-84.3-93.88-132.12-137.63-47.71-43.79-99.06-85.37-154.01-124.07-54.93-38.72-113.32-74.64-174.4-107.71-61.07-33.09-124.78-63.36-190.15-91.38-65.37-28.02-132.36-53.84-200.02-78.54-67.66-24.71-136.01-48.31-204.23-72.09-68.22-23.78-136.31-47.78-203.45-73.24-67.13-25.45-133.31-52.38-197.55-81.78,64.09,29.58,130.15,56.7,197.17,82.34,67.03,25.65,135.02,49.84,203.12,73.82,68.11,23.97,136.33,47.76,203.84,72.64,67.51,24.87,134.31,50.86,199.46,79.02,65.14,28.16,128.59,58.55,189.37,91.74,60.78,33.17,118.84,69.15,173.42,107.91,54.6,38.74,105.59,80.32,152.92,124.1,47.45,43.73,90.79,89.91,131.01,137.54l5.62-2.67Z"></path>
  <path class="cls-1" d="m1405.19,1202.62c-39.18-46.02-81.27-90.69-127.17-133.08-45.81-42.43-94.98-82.84-147.58-120.56-52.56-37.75-108.38-72.92-166.8-105.41-58.41-32.51-119.4-62.35-182.04-90-62.65-27.66-126.97-53.11-192.04-77.34-65.08-24.23-130.94-47.23-196.83-70.15-65.89-22.91-131.83-45.77-197.06-69.71-65.23-23.94-129.77-48.99-192.77-76.12,62.86,27.31,127.29,52.55,192.41,76.68,65.13,24.14,130.95,47.18,196.73,70.28,65.77,23.1,131.5,46.29,196.42,70.69,64.91,24.4,129.04,50.01,191.46,77.81,62.42,27.79,123.14,57.75,181.25,90.36,58.12,32.59,113.61,67.82,165.83,105.61,52.25,37.76,101.07,78.18,146.51,120.6,45.54,42.38,87.27,87.02,126.08,133.01l5.62-2.67Z"></path>
  <path class="cls-1" d="m1352.51,1202.62c-37.86-44.48-78.44-87.7-122.57-128.8-44.04-41.15-91.21-80.43-141.62-117.22-50.37-36.82-103.81-71.25-159.76-103.17-55.94-31.94-114.37-61.36-174.47-88.64-60.1-27.31-121.88-52.44-184.51-76.26-62.63-23.82-126.12-46.33-189.77-68.53-63.66-22.2-127.48-44.11-190.83-66.79-63.34-22.68-126.2-46.15-187.85-71.35,61.51,25.38,124.26,49.04,187.49,71.91,63.23,22.88,126.95,44.98,190.48,67.36,63.53,22.38,126.88,45.07,189.34,69.06,62.46,23.99,124.05,49.28,183.92,76.72,59.87,27.42,118.04,56.96,173.68,88.99,55.65,32.01,108.76,66.51,158.79,103.37,50.08,36.83,96.88,76.13,140.57,117.27,43.77,41.11,83.99,84.3,121.5,128.75l5.62-2.67Z"></path>
  <path class="cls-1" d="m1299.84,1202.62c-36.5-42.88-75.52-84.59-117.82-124.36-42.23-39.8-87.34-77.9-135.52-113.69-48.12-35.83-99.12-69.46-152.53-100.75-53.4-31.3-109.19-60.26-166.66-87.15-57.46-26.91-116.59-51.74-176.66-75.15-60.07-23.43-121.05-45.48-182.32-67.03-122.55-43.08-246.3-84.28-366.45-131.08,119.89,47.17,243.45,88.76,365.74,132.21,61.15,21.73,121.99,43.96,181.88,67.56,59.89,23.58,118.82,48.57,176.05,75.61,57.23,27.02,112.75,56.09,165.86,87.49,53.11,31.38,103.79,65.08,151.57,100.95,47.84,35.83,92.6,73.95,134.48,113.75,41.95,39.77,80.62,81.46,116.77,124.31l5.62-2.67Z"></path>
  <path class="cls-1" d="m1247.16,1202.62c-35.25-41.27-72.89-81.38-113.28-119.89l-15.27-14.37-7.64-7.18c-2.56-2.39-5.26-4.68-7.89-7.03l-15.86-14-7.93-7c-2.65-2.33-5.25-4.69-8.04-6.93l-32.88-27.24-33.98-26.46c-45.96-34.8-94.58-67.61-145.5-98.24-50.91-30.65-104.1-59.12-158.96-85.61-54.85-26.5-111.34-51.05-168.86-74.07-57.51-23.06-116-44.7-174.87-65.68-117.75-41.98-237.08-81.39-353.78-124.99,116.46,43.97,235.59,83.77,353.07,126.12,58.74,21.17,117.07,42.99,174.41,66.21,57.35,23.19,113.62,47.89,168.24,74.52,54.62,26.62,107.54,55.21,158.16,85.94,50.63,30.72,98.93,63.59,144.56,98.44l33.73,26.49,32.62,27.26c2.76,2.24,5.35,4.6,7.97,6.94l7.87,7,15.74,14.01c2.6,2.35,5.29,4.64,7.82,7.03l7.57,7.18,15.14,14.37c40.04,38.52,77.34,78.62,112.24,119.86l5.62-2.67Z"></path>
  <path class="cls-1" d="m1194.49,1202.62c-33.92-39.72-70.06-78.38-108.74-115.57-38.69-37.17-79.81-72.95-123.74-106.68-43.84-33.79-90.17-65.75-138.69-95.71-48.5-29.96-99.18-57.91-151.49-83.98-52.32-26.07-106.23-50.29-161.22-72.99-54.99-22.71-111-43.99-167.48-64.49-112.97-41.01-227.85-78.92-340.89-119.78,112.8,41.23,227.47,79.53,340.17,120.9,56.34,20.68,112.19,42.13,167,65,54.81,22.86,108.51,47.23,160.58,73.43,52.07,26.19,102.47,54.26,150.69,84.31,48.22,30.04,94.23,62.07,137.75,95.91,43.6,33.78,84.39,69.58,122.73,106.76,38.33,37.2,74.13,75.85,107.71,115.56l5.62-2.67Z"></path>
  <path class="cls-1" d="m1141.81,1202.62c-32.6-38.18-67.24-75.38-104.22-111.23-36.99-35.84-76.23-70.4-118.06-103.11-41.76-32.75-85.82-63.84-131.95-93.08-46.12-29.25-94.3-56.64-144.08-82.25-49.78-25.62-101.13-49.47-153.57-71.86-52.46-22.37-105.96-43.31-160.01-63.37-108.12-40.15-218.41-76.78-327.56-115.25,108.91,38.85,218.99,75.87,326.82,116.37,53.91,20.24,107.25,41.36,159.51,63.88,52.24,22.55,103.38,46.54,152.92,72.29,49.53,25.74,97.44,53.24,143.27,82.57,45.84,29.32,89.59,60.48,131.03,93.28,41.51,32.75,80.41,67.34,117.07,103.2,36.64,35.87,70.95,73.06,103.21,111.23l5.62-2.67Z"></path>
  <path class="cls-1" d="m1089.14,1202.62c-31.32-36.69-64.52-72.47-99.87-107.02-35.36-34.54-72.79-67.91-112.62-99.59-39.77-31.72-81.67-61.93-125.52-90.44-43.84-28.52-89.62-55.33-136.96-80.47-47.33-25.15-96.21-48.62-146.16-70.69-49.97-22.05-101.03-42.67-152.69-62.36-103.34-39.39-209.1-74.98-314.26-111.46,104.93,36.86,210.46,72.83,313.5,112.57,51.51,19.87,102.4,40.65,152.18,62.86,49.76,22.22,98.42,45.84,145.5,71.11,47.09,25.26,92.6,52.18,136.15,80.79,43.56,28.6,85.15,58.87,124.6,90.64,39.52,31.73,76.61,65.14,111.64,99.69,35.02,34.57,67.89,70.35,98.87,107.03l5.62-2.67Z"></path>
  <path class="cls-1" d="m1036.47,1202.62c-30-35.16-61.74-69.48-95.45-102.69-33.72-33.19-69.31-65.34-107.13-95.94-37.76-30.64-77.48-59.91-119.02-87.64-41.54-27.73-84.89-53.91-129.74-78.53-44.85-24.63-91.18-47.7-138.6-69.41-47.42-21.72-95.97-42-145.15-61.34-98.39-38.68-199.4-73.37-300.3-108.11,100.67,35.11,201.44,70.18,299.53,109.21,49.03,19.51,97.4,39.97,144.62,61.84,47.22,21.86,93.34,45.07,137.94,69.83,44.61,24.74,87.69,51.03,128.94,78.85,41.26,27.81,80.68,57.15,118.12,87.85,37.51,30.66,72.77,62.84,106.16,96.05,33.38,33.23,64.79,67.56,94.46,102.72l5.62-2.67Z"></path>
  <path class="cls-1" d="m983.79,1202.62c-28.64-33.56-58.85-66.36-90.85-98.15l-12.07-11.88-6.04-5.94-6.22-5.83-12.46-11.65-6.23-5.83c-2.07-1.94-4.14-3.89-6.31-5.78l-25.69-22.83-26.44-22.34c-35.69-29.49-73.17-57.75-112.35-84.61-39.17-26.87-80.02-52.34-122.3-76.38-42.28-24.05-85.97-46.66-130.75-67.97-44.76-21.34-90.66-41.29-137.23-60.28-93.17-37.98-189.12-71.88-285.39-105.09,96.04,33.59,191.75,67.86,284.6,106.18,46.41,19.16,92.13,39.27,136.69,60.76,44.57,21.46,88.04,44.22,130.08,68.38,42.03,24.16,82.62,49.73,121.5,76.69,38.89,26.95,76.08,55.28,111.46,84.82l26.2,22.38,25.46,22.86c2.15,1.89,4.2,3.84,6.25,5.78l6.17,5.83,12.34,11.66,6.16,5.84,5.98,5.95,11.95,11.89c31.68,31.82,61.57,64.63,89.88,98.2l5.62-2.67Z"></path>
  <path class="cls-1" d="m931.12,1202.62c-54.76-64.17-115.32-125.63-182.98-182.46-33.82-28.41-69.28-55.71-106.31-81.75-37.02-26.04-75.61-50.82-115.56-74.28-79.88-46.96-165.16-88.55-253.53-125.81-88.34-37.35-179.57-70.62-271.46-102.65,91.66,32.41,182.63,66.05,270.64,103.74,88.04,37.6,172.91,79.49,252.29,126.69,39.7,23.58,78.02,48.46,114.76,74.59,36.75,26.13,71.92,53.5,105.43,81.96,67.05,56.94,126.98,118.46,181.1,182.64l5.62-2.67Z"></path>
  <path class="cls-1" d="m878.44,1202.62c-51.92-60.85-109.06-119.25-172.54-173.59-63.45-54.33-132.95-104.66-207.65-150.16-74.66-45.54-154.37-86.29-237.24-122.83-82.85-36.62-168.65-69.27-255.44-100.19,86.55,31.3,172.09,64.31,254.59,101.27,82.53,36.87,161.82,77.92,235.99,123.69,74.2,45.74,143.14,96.24,205.99,150.68,62.88,54.45,119.39,112.92,170.68,173.8l5.62-2.67Z"></path>
  <path class="cls-1" d="m825.77,1202.62c-49.51-58.04-103.79-113.85-163.78-166.03-59.99-52.16-125.47-100.75-195.8-144.98-70.31-44.26-145.33-84.2-223.54-120.1-78.18-35.98-159.34-68.13-241.71-98.26,82.13,30.5,163.01,63.02,240.84,99.32,77.86,36.23,152.46,76.46,222.27,120.94,69.84,44.46,134.76,93.23,194.16,145.51,59.4,52.3,113.06,108.18,161.95,166.26l5.62-2.67Z"></path>
  <path class="cls-1" d="m773.09,1202.62c-46.78-54.85-97.83-107.68-153.92-157.37-56.12-49.65-117.13-96.18-182.58-138.86-65.44-42.7-135.2-81.59-208.11-116.71-72.88-35.18-148.72-66.77-225.97-96.13,77,29.72,152.54,61.67,225.07,97.18,72.55,35.44,141.89,74.62,206.83,117.54,64.96,42.91,125.41,89.62,180.95,139.4,55.51,49.81,105.95,102.73,152.12,157.62l5.62-2.67Z"></path>
  <path class="cls-1" d="m720.42,1202.62c-43.99-51.59-91.78-101.38-143.97-148.46-52.24-47.04-108.79-91.38-169.35-132.36-60.56-40.99-125.04-78.67-192.56-112.91-67.5-34.29-137.86-65.27-209.81-93.92,71.68,29.02,141.74,60.35,208.87,94.95,67.16,34.55,131.2,72.51,191.27,113.73,60.08,41.21,116.08,85.73,167.75,132.9,51.62,47.21,98.81,97.1,142.2,148.74l5.62-2.67Z"></path>
  <path class="cls-1" d="m667.75,1202.62c-41.2-48.31-85.74-95.04-134.1-139.45-48.41-44.37-100.59-86.42-156.36-125.58-55.76-39.17-115.04-75.48-177.2-108.72-62.14-33.27-127.01-63.57-193.55-91.55,66.27,28.34,130.83,58.98,192.58,92.56,61.78,33.54,120.62,70.13,175.89,109.52,55.28,39.39,106.92,81.62,154.77,126.13,47.79,44.55,91.75,91.38,132.35,139.76l5.62-2.67Z"></path>
  <path class="cls-1" d="m615.07,1202.62c-38.66-45.33-80.26-89.25-125.2-131.17-44.97-41.9-93.27-81.78-144.76-119.18-51.49-37.4-106.11-72.34-163.44-104.54-57.3-32.23-117.18-61.82-178.78-89.16,61.31,27.7,120.86,57.62,177.78,90.15,56.95,32.5,111.13,67.71,162.13,105.33,51,37.63,98.77,77.69,143.18,119.73,44.38,42.07,85.41,86.1,123.48,131.51l5.62-2.67Z"></path>
  <path class="cls-1" d="m562.4,1202.62c-35.95-42.02-74.4-82.82-115.69-121.96-41.27-39.14-85.38-76.58-132.29-111.93-46.9-35.36-96.59-68.6-148.66-99.56-52.06-30.97-106.49-59.66-162.62-86.27,55.84,26.96,109.92,55.98,161.58,87.25,51.68,31.25,100.93,64.76,147.34,100.34,46.43,35.57,90.01,73.2,130.73,112.49,40.74,39.28,78.62,80.21,113.99,122.31l5.62-2.67Z"></path>
  <path class="cls-1" d="m509.72,1202.62c-33.01-38.58-68.14-76.14-105.64-112.32-37.49-36.18-77.36-70.97-119.61-104.04-42.24-33.08-86.86-64.42-133.59-93.86-46.72-29.45-95.54-56.98-146-82.67,50.14,26.04,98.61,53.89,144.93,83.63,46.33,29.73,90.5,61.33,132.25,94.63,41.77,33.29,81.11,68.27,118.07,104.61,36.96,36.34,71.53,74.02,103.97,112.71l5.62-2.67Z"></path>
  <path class="cls-1" d="m457.05,1202.62c-30.07-35.14-61.91-69.43-95.69-102.6-33.78-33.17-69.52-65.21-107.24-95.87-37.71-30.66-77.41-59.94-118.93-87.66-41.52-27.73-84.85-53.89-129.69-78.49,44.51,24.93,87.47,51.41,128.58,79.42,41.11,28,80.36,57.53,117.59,88.42,37.24,30.88,72.46,63.12,105.71,96.45,33.26,33.33,64.54,67.75,94.05,103.01l5.62-2.67Z"></path>
  <path class="cls-1" d="m404.37,1202.62c-54.09-63.22-114.03-123.66-180.52-179.78-33.23-28.06-68.06-55.04-104.41-80.8-36.35-25.76-74.22-50.29-113.42-73.54,38.85,23.58,76.34,48.41,112.28,74.45,35.94,26.03,70.32,53.26,103.06,81.54,65.53,56.56,124.4,117.34,177.4,180.8l5.62-2.67Z"></path>
  <path class="cls-1" d="m351.7,1202.62c-48.1-56.15-100.79-110.1-158.61-160.77-57.78-50.68-120.71-98.03-188.21-141.32,66.77,43.92,128.84,91.81,185.67,142.93,56.87,51.11,108.52,105.41,155.53,161.83l5.62-2.67Z"></path>
  <path class="cls-1" d="m299.02,1202.62c-41.79-48.71-87.03-95.75-136.1-140.43-49.04-44.68-101.92-86.97-158.4-126.32,55.72,39.96,107.72,82.77,155.82,127.9,48.12,45.12,92.33,92.53,133.06,141.53l5.62-2.67Z"></path>
  <path class="cls-1" d="m246.35,1202.62c-35.33-41.08-73.11-80.96-113.57-119.24-40.46-38.28-83.6-74.93-129.38-109.6,44.99,35.25,87.25,72.41,126.76,111.13,39.52,38.72,76.29,78.98,110.58,120.37l5.62-2.67Z"></path>
  <path class="cls-1" d="m193.68,1202.62c-28.88-33.45-59.38-66.1-91.64-97.72-32.25-31.63-66.26-62.23-102.04-91.59,34.95,29.92,68.07,61.02,99.38,93.09,31.31,32.07,60.83,65.11,88.68,98.9l5.62-2.67Z"></path>
  <path class="cls-1" d="m141,1202.62c-41.31-47.43-85.92-93.23-134.1-136.74,46.46,44.56,89.17,91.24,128.48,139.42l5.62-2.67Z"></path>
  <path class="cls-1" d="m88.33,1202.62c-26.66-30.06-54.63-59.44-84-87.97,27.59,29.52,53.68,59.78,78.38,90.64l5.62-2.67Z"></path>
  <polygon class="cls-1" points="35.65 1202.62 .79 1167.07 30.04 1205.29 35.65 1202.62"></polygon>
</svg>
