<?xml version="1.0" encoding="UTF-8"?>
<!-- Generator: Adobe Illustrator 27.7.0, SVG Export Plug-In . SVG Version: 6.00 Build 0)  -->
<svg xmlns="http://www.w3.org/2000/svg" xmlns:xlink="http://www.w3.org/1999/xlink" version="1.1" id="Layer_1" x="0px" y="0px" viewBox="0 0 2644.1 1190.3" style="enable-background:new 0 0 2644.1 1190.3;" xml:space="preserve">
<style type="text/css">
	.st0{fill:#F5F4F0;}
</style>
<g>
	<path class="st0" d="M2648.8,16.7c-11.7-11.6-23.2-23.3-34.5-35.2c9.4,12.8,19,25.5,29,38L2648.8,16.7z"></path>
	<path class="st0" d="M2648,71.4c-30.5-29-59.3-59.1-86.4-90c25.3,31.8,52.3,62.9,81.1,93L2648,71.4z"></path>
	<path class="st0" d="M2647.5,120.9c-50.4-44-96.7-90.7-138.7-139.5c40.2,49.7,84.7,97.4,133.6,142.7L2647.5,120.9z"></path>
	<path class="st0" d="M2647.7,166.3c-35.7-28.5-69.6-58.2-101.5-89.1c-32-30.9-62.1-62.9-90.3-95.8c27.2,33.4,56.4,65.9,87.6,97.3   c31.2,31.4,64.3,61.8,99.3,90.9L2647.7,166.3z"></path>
	<path class="st0" d="M2647.3,207.1c-46.3-33.9-89.9-69.8-130.7-107.5c-40.7-37.7-78.6-77.2-113.5-118.2   c34,41.4,70.9,81.4,110.9,119.8c39.9,38.3,82.9,74.9,128.6,109.5L2647.3,207.1z"></path>
	<path class="st0" d="M2646.2,244.1c-56.9-38.4-110.4-79.7-159.8-123.7c-49.4-43.9-94.8-90.5-136-139c40.3,49,84.8,96.1,133.5,140.6   c48.7,44.6,101.5,86.6,157.9,125.8L2646.2,244.1z"></path>
	<path class="st0" d="M2647.4,279.7c-68.1-42.4-132-88.7-190.5-138.7c-58.5-49.9-111.7-103.4-159.3-159.6   c46.7,56.6,99,110.7,156.8,161.2c57.8,50.6,121.1,97.6,188.7,140.9L2647.4,279.7z"></path>
	<path class="st0" d="M2646.2,311.2c-39.4-22.8-77.6-46.9-114.4-72.1c-36.8-25.2-72.1-51.7-105.7-79.3   c-33.6-27.6-65.6-56.4-95.9-86.1c-30.2-29.8-58.7-60.5-85.5-92.2c26.3,31.8,54.4,62.9,84.2,92.9c29.8,30.1,61.4,59.1,94.7,87.1   c33.3,27.9,68.3,54.8,104.8,80.4c36.5,25.6,74.5,50.1,113.7,73.3L2646.2,311.2z"></path>
	<path class="st0" d="M2645.4,340.7c-44.8-24.3-88.3-49.9-130.1-77.1c-41.8-27.1-81.9-55.8-119.9-85.9   c-38.1-30.1-74.1-61.6-108.1-94.4c-33.9-32.8-65.7-66.8-95.4-101.9c29.2,35.3,60.6,69.6,94.1,102.7c33.5,33.1,69.2,64.9,107,95.4   c37.7,30.4,77.5,59.5,119.1,87c41.5,27.5,84.8,53.6,129.4,78.3L2645.4,340.7z"></path>
	<path class="st0" d="M2646.9,369.5c-50.4-25.5-99.3-52.6-146.4-81.6c-47-28.9-92.1-59.6-134.9-92.1   c-42.7-32.5-83.1-66.8-120.8-102.6c-37.8-35.8-73-73.2-105.6-111.8c32.2,38.8,66.9,76.4,104.3,112.5   c37.4,36.1,77.4,70.7,119.8,103.6c42.4,32.9,87.2,63.9,134.1,93.3c46.8,29.3,95.6,56.9,145.8,82.8L2646.9,369.5z"></path>
	<path class="st0" d="M2649.4,396.9c-56-26.7-110.6-55.1-163-85.6c-52.4-30.5-102.7-63.1-150.2-97.9   c-47.5-34.8-92.3-71.7-133.9-110.5c-41.7-38.8-80.3-79.4-116-121.5c35.2,42.3,73.3,83.2,114.7,122.3   c41.3,39.1,85.7,76.3,132.9,111.5c47.2,35.1,97.2,68.2,149.4,99.1c52.2,30.9,106.6,59.8,162.5,86.8L2649.4,396.9z"></path>
	<path class="st0" d="M2648.6,421.3c-61.2-27.6-121-57.1-178.5-88.9c-57.5-31.8-112.6-66.1-164.7-102.8   c-52.1-36.8-101-76-146.3-117.5c-45.4-41.5-87.2-85.2-125.5-130.6c37.8,45.6,79.2,89.5,124.2,131.3c45,41.8,93.6,81.4,145.3,118.6   c51.8,37.1,106.7,71.8,164,104c57.3,32.3,116.9,62.2,178,90.2L2648.6,421.3z"></path>
	<path class="st0" d="M2646.4,443.9c-66.3-28.5-131.1-58.9-193.5-91.9c-62.4-33-122.4-68.7-178.9-107.3   c-56.5-38.6-109.5-80-158.5-124.1c-49-44-93.9-90.6-134.8-139.1c40.5,48.7,84.9,95.6,133.5,139.9c48.6,44.4,101.3,86.2,157.5,125.1   c56.2,39,116,75.1,178.2,108.5c62.2,33.5,126.9,64.3,193.1,93.2L2646.4,443.9z"></path>
	<path class="st0" d="M2647.4,466.7c-71.5-29.4-141.6-60.7-209.3-94.9c-67.6-34.2-132.7-71.2-194-111.6   c-61.3-40.4-118.7-84.1-171.5-130.8c-52.8-46.7-101-96.3-144.7-148c43.2,52,91,101.9,143.5,148.8c52.4,47,109.6,91.1,170.6,131.8   c61,40.8,125.9,78.3,193.4,112.9c67.5,34.6,137.5,66.3,208.9,96.1L2647.4,466.7z"></path>
	<path class="st0" d="M2647.9,488.5c-76.6-30.3-151.9-62.4-224.7-97.6c-72.8-35.2-142.9-73.5-208.9-115.6   c-66-42-127.9-87.8-184.5-137C1973,89,1921.6,36.4,1875.2-18.5c45.9,55.2,97,108,153.3,157.5c56.3,49.5,117.8,95.7,183.6,138.1   c65.8,42.5,135.8,81.2,208.4,116.8c72.6,35.6,147.9,68.2,224.3,98.9L2647.9,488.5z"></path>
	<path class="st0" d="M2648.1,509.3c-81.5-31.3-162-64.2-239.9-100.4c-77.9-36.1-153.1-75.6-223.9-119.2   c-70.8-43.6-137.1-91.4-197.6-143.1c-60.5-51.6-115.3-107.1-164.3-165.2c48.6,58.4,102.9,114.1,163.1,166.1   c60.1,52,126.1,100.2,196.7,144.2c70.6,44,145.7,83.9,223.4,120.5c77.7,36.6,158.1,69.9,239.5,101.6L2648.1,509.3z"></path>
	<path class="st0" d="M2648.7,529.8c-86.4-32.4-172-66.1-255-103.2c-83-37-163.4-77.5-239-122.6c-75.7-45.1-146.5-94.8-210.9-148.8   c-64.5-54-122.5-112.4-174.2-173.7c51.3,61.5,108.9,120.1,173,174.5c64.1,54.4,134.6,104.5,210.1,150   c75.4,45.5,155.7,86.4,238.5,123.9c82.9,37.5,168.3,71.6,254.6,104.4L2648.7,529.8z"></path>
	<path class="st0" d="M2648.4,549.4c-91.1-33.6-181.7-68.1-269.7-106c-88-37.9-173.4-79.3-253.9-125.7   c-40.2-23.2-79.2-47.7-116.6-73.4c-37.4-25.7-73.3-52.7-107.5-80.9c-68.4-56.3-129.7-117.5-184-181.9   c53.9,64.6,114.7,126.1,182.8,182.7c34,28.3,69.7,55.5,107,81.4c37.3,25.9,76.1,50.6,116.3,74c80.2,46.9,165.5,88.7,253.4,127   c87.9,38.4,178.3,73.3,269.2,107.2L2648.4,549.4z"></path>
	<path class="st0" d="M2649.4,569.3c-95.8-35-191.3-70.3-284.4-109.1c-93.1-38.8-183.7-81-269.1-128.8   c-42.7-23.9-84.1-49.1-123.8-75.7c-39.7-26.6-77.8-54.6-114-84c-36.2-29.3-70.5-60-102.8-91.8c-32.3-31.8-62.7-64.7-91.3-98.5   c28.3,33.9,58.5,66.9,90.6,98.8c32.1,31.9,66.2,62.7,102.3,92.2c36,29.5,73.9,57.7,113.5,84.5c39.6,26.8,80.9,52.2,123.5,76.3   c85.2,48.2,175.7,90.9,268.7,130c93,39.2,188.4,75,283.9,110.4L2649.4,569.3z"></path>
	<path class="st0" d="M2647.6,588c-100.1-36.5-200.3-72.8-298.2-112.4c-97.9-39.6-193.4-82.6-283.6-131.5   c-45.1-24.4-88.8-50.3-130.7-77.7c-41.9-27.4-82.1-56.4-120.2-86.8c-38.1-30.4-74.2-62.3-108.2-95.3c-34-33.1-65.8-67.4-95.6-102.7   c29.6,35.4,61.2,69.9,94.9,103.1c33.7,33.2,69.6,65.2,107.6,95.8c38,30.6,78,59.7,119.8,87.3c41.8,27.6,85.4,53.7,130.4,78.4   c90,49.3,185.4,92.8,283.1,132.8c97.8,40,197.8,76.7,297.7,113.6L2647.6,588z"></path>
	<path class="st0" d="M2646.9,607.1c-104.4-38.2-209.3-75.6-312.1-116.1c-51.4-20.2-102.2-41.3-152.1-63.5   c-49.9-22.2-98.8-45.7-146.3-70.7c-47.5-25-93.6-51.5-137.8-79.7c-44.2-28.2-86.6-58.1-126.7-89.6c-40.1-31.5-78.1-64.5-113.7-99   c-35.6-34.4-68.9-70.2-100-107c30.9,36.9,63.9,72.8,99.3,107.4c35.4,34.6,73.1,67.8,113.1,99.4c40,31.7,82.2,61.7,126.3,90.1   c44.1,28.4,90.1,55.2,137.5,80.4c47.4,25.2,96.3,48.9,146.1,71.4c49.8,22.5,100.6,43.7,151.9,64.2   c102.6,40.9,207.4,78.6,311.5,117.2L2646.9,607.1z"></path>
	<path class="st0" d="M2648.5,627.2c-108.7-40.3-218.4-78.9-326.2-120.3c-53.9-20.7-107.3-42.2-159.8-64.9   c-52.5-22.7-104-46.6-154-72.2c-50.1-25.5-98.7-52.7-145.3-81.7c-46.6-29-91.3-59.8-133.5-92.4c-42.3-32.6-82.1-66.9-119.5-102.7   c-37.4-35.8-72.2-73.1-104.6-111.5c32.2,38.5,66.8,75.9,104,111.9c37.1,36,76.8,70.4,118.9,103.2c42.1,32.7,86.6,63.8,133.1,92.9   c46.5,29.2,95,56.6,145,82.4c50,25.8,101.4,49.9,153.8,72.8c52.4,22.9,105.7,44.6,159.6,65.5c107.6,41.9,217.2,80.8,325.5,121.5   L2648.5,627.2z"></path>
	<path class="st0" d="M2648.2,646.9c-112.6-42.7-226.9-82.6-339.5-125c-56.3-21.2-112.2-43.1-167.1-66.2   c-55-23.1-109-47.4-161.6-73.5c-52.6-26-103.6-53.8-152.6-83.6c-49-29.7-95.9-61.4-140.2-95c-44.3-33.6-86.1-69.1-125.2-106.2   c-39.1-37.1-75.4-75.9-109.2-115.9c33.5,40.1,69.6,79,108.5,116.2c38.8,37.3,80.5,73,124.6,106.7c44.2,33.8,90.9,65.7,139.8,95.6   c48.9,29.9,99.9,57.9,152.3,84.2c52.5,26.3,106.5,50.8,161.4,74.1c54.9,23.3,110.7,45.4,166.9,66.8   c112.4,42.9,226.5,83.2,338.8,126.1L2648.2,646.9z"></path>
	<path class="st0" d="M2647.6,667c-116.3-45.3-235.1-86.8-352.5-130.3c-58.7-21.8-117-44.1-174.5-67.6   c-57.4-23.5-114-48.3-169.1-74.8c-55.1-26.5-108.6-54.8-160-85.3c-51.4-30.4-100.6-63-147-97.6c-46.5-34.6-90.2-71.3-130.9-109.8   C1472.9,63.2,1435.1,23,1400-18.5c34.8,41.6,72.5,82,113,120.6c40.6,38.6,84.1,75.5,130.4,110.3c46.3,34.8,95.4,67.5,146.6,98.2   c51.3,30.6,104.7,59.2,159.7,85.9c55,26.7,111.5,51.7,168.9,75.4c57.4,23.7,115.6,46.2,174.2,68.2   c117.2,43.9,235.7,85.8,351.6,131.4L2647.6,667z"></path>
	<path class="st0" d="M2647.3,687.7c-119.8-48.3-243-91.6-365.1-136.3c-61.1-22.4-121.8-45.1-181.8-69   c-60-23.9-119.1-49.1-176.7-76.1c-57.6-27-113.7-55.8-167.5-87c-53.8-31.1-105.3-64.4-154-100.1c-48.6-35.6-94.4-73.4-136.9-113.2   c-42.6-39.8-81.8-81.5-118.1-124.6c36.1,43.2,75.1,85.1,117.5,125c42.4,39.9,87.9,77.9,136.4,113.7   c48.5,35.8,99.9,69.3,153.6,100.6c53.7,31.3,109.7,60.4,167.2,87.6c57.5,27.2,116.6,52.6,176.5,76.7   c59.9,24.2,120.6,47.1,181.6,69.7c121.9,45.1,244.8,88.7,364.1,137.3L2647.3,687.7z"></path>
	<path class="st0" d="M2650,710.6c-123.3-52-251-97.4-378-143.5c-63.5-23.1-126.9-46.3-189.5-70.8c-62.6-24.4-124.4-50-184.8-77.4   c-60.3-27.5-119.1-56.8-175.5-88.6c-56.4-31.8-110.5-66-161.4-102.6c-51-36.6-98.8-75.7-143.3-116.8   c-44.5-41.2-85.3-84.5-123.1-129.3c37.5,44.9,78.2,88.3,122.4,129.7c44.3,41.3,92,80.5,142.8,117.4   c50.8,36.8,104.7,71.2,161.1,103.2c56.3,32,115,61.6,175.3,89.3c60.2,27.7,122,53.4,184.6,78.1c62.5,24.6,125.8,48.1,189.3,71.4   C2396.7,617,2524,662.7,2646.8,715L2650,710.6z"></path>
	<path class="st0" d="M2648.6,732.8c-63-27.9-127.5-53.8-192.7-78.6c-65.2-24.9-131-48.7-196.8-72.5   c-65.8-23.8-131.6-47.6-196.7-72.5c-65.1-24.9-129.4-50.8-192.3-78.7c-62.9-27.9-124.2-57.7-183.1-90.1   c-58.9-32.4-115.3-67.3-168.5-104.9c-53.2-37.6-103.1-77.8-149.3-120.2c-46.3-42.5-88.7-87.2-127.7-133.6   c38.8,46.5,81,91.4,127.1,134c46.1,42.6,95.8,83,148.8,120.7c53,37.8,109.4,72.9,168.2,105.5c58.8,32.6,120.1,62.7,182.9,90.8   c62.8,28.1,127.1,54.2,192.1,79.3c65,25.1,130.7,49.1,196.4,73.1c65.7,24,131.3,48,196.3,73c65,25,129.2,51.1,192,79L2648.6,732.8z   "></path>
	<path class="st0" d="M2646.8,755.8c-64.3-29.9-130.4-57.6-197.4-83.8c-67-26.3-134.9-51.1-202.9-75.8   c-68-24.7-136.2-49.1-203.7-74.5c-67.5-25.4-134.4-51.7-199.8-80c-65.4-28.3-129.3-58.6-190.7-91.6   c-61.4-33-120.2-68.6-175.6-107.2c-55.4-38.5-107.4-79.8-155.4-123.6c-48.1-43.7-92-90-132.4-137.9c40.2,48,83.9,94.4,131.8,138.3   c47.9,43.9,99.6,85.4,154.9,124.1c55.3,38.7,114,74.6,175.3,107.8c61.3,33.2,125.1,63.7,190.5,92.2c65.3,28.5,132.2,55,199.6,80.6   c67.4,25.6,135.5,50.2,203.4,75c67.9,24.8,135.6,49.9,202.4,76.3c66.8,26.4,132.6,54.1,196.6,84.2L2646.8,755.8z"></path>
	<path class="st0" d="M2648.6,782c-65.4-32.4-133.1-62.1-201.9-90.1c-68.9-28-139-54.2-209.3-79.8c-70.4-25.7-141.1-50.8-211.2-76.8   c-70.1-25.9-139.8-52.7-207.9-81.5c-68.2-28.7-134.9-59.5-199-93.1c-64.1-33.6-125.6-70-183.5-109.5   c-57.9-39.5-112.1-82-162.1-127.1c-50.1-45.1-95.7-93-137.5-142.6c41.6,49.8,87,97.7,136.9,143c49.9,45.3,103.9,88,161.7,127.6   c57.7,39.7,119.2,76.3,183.2,110.1c64,33.8,130.7,64.8,198.8,93.7c68.1,29,137.7,55.9,207.7,82.1c70.1,26.1,140.6,51.5,210.9,77.4   c70.2,25.8,140.1,52.2,208.7,80.3c68.6,28.1,136,57.9,201,90.4L2648.6,782z"></path>
	<path class="st0" d="M2647.2,808.2c-66.2-35-135.2-66.9-205.7-96.6c-70.5-29.8-142.6-57.4-215.1-84.1   c-72.6-26.8-145.6-52.7-218.3-79.3c-72.6-26.6-144.9-53.7-215.7-82.9c-70.8-29.2-140.2-60.3-207-94.5   c-66.8-34.1-130.9-71.2-191.1-111.6c-60.3-40.4-116.7-84-168.7-130.5c-52-46.5-99.3-95.8-142.5-147.1   c43,51.4,90.1,100.9,141.9,147.5c51.8,46.6,108,90.4,168.2,131c60.1,40.6,124.1,77.9,190.8,112.3c66.7,34.4,136,65.7,206.8,95.1   c70.8,29.4,142.9,56.8,215.5,83.5c72.6,26.7,145.5,52.9,217.9,79.8c72.4,26.9,144.2,54.7,214.5,84.6   c70.2,29.9,138.9,61.9,204.7,96.9L2647.2,808.2z"></path>
	<path class="st0" d="M2649.8,838.5c-66.8-38-137-72.6-209.1-104.5c-72.2-32-146.3-61.3-221.1-89.4c-149.7-56.2-302.5-107.6-450-167   c-73.7-29.6-146.1-61.2-215.8-96c-69.7-34.7-136.6-72.5-199.6-113.9c-62.9-41.3-121.8-86.2-175.9-134.1   c-54.1-47.9-103.2-99-148-152.1c44.5,53.2,93.4,104.4,147.3,152.5c53.9,48.1,112.6,93.1,175.5,134.7   c62.8,41.6,129.7,79.6,199.3,114.5c69.6,34.9,141.9,66.8,215.6,96.6c147.3,59.7,300,111.5,449.3,168.1   c74.7,28.3,148.5,57.8,220.4,89.8c71.8,32,141.7,66.7,208.1,104.7L2649.8,838.5z"></path>
	<path class="st0" d="M2647.6,868.2c-67.1-41-138.1-78.3-211.6-112.5c-73.5-34.2-149.4-65.4-226.3-94.9   c-153.8-59.1-311.8-111.7-464.7-171.9c-76.4-30.1-151.6-62.1-224-97.3c-72.4-35.2-142.1-73.7-207.5-116   c-65.5-42.2-126.6-88.2-182.8-137.5c-56.2-49.3-107-101.9-153.1-156.7c45.9,54.9,96.5,107.7,152.5,157.1   c56,49.4,117,95.6,182.3,138c65.3,42.5,134.9,81.2,207.3,116.6c72.4,35.5,147.4,67.7,223.8,98c152.8,60.6,310.5,113.6,463.9,173   c76.7,29.7,152.3,61,225.5,95.3c73.2,34.3,143.8,71.6,210.4,112.7L2647.6,868.2z"></path>
	<path class="st0" d="M2647.9,902c-67-44.4-138.7-84.9-213.3-121.7c-74.7-36.9-152.3-70.2-231.3-101.4   c-158-62.5-321.5-116.6-480.2-177.8c-79.3-30.6-157.5-63-232.9-98.8c-75.4-35.7-148-74.9-216.2-118.1   c-68.2-43.1-132-90.3-190.3-141c-58.4-50.7-111-105-158.8-161.6c47.5,56.7,100,111.2,158.1,162c58.2,50.9,121.7,98.2,189.9,141.6   c68.1,43.4,140.6,82.7,216,118.7c75.3,36,153.4,68.6,232.7,99.4c158.6,61.6,321.8,116.1,479.4,178.9   c78.8,31.4,156.1,64.8,230.4,101.8c74.3,36.9,145.5,77.4,212.1,121.8L2647.9,902z"></path>
	<path class="st0" d="M2647.2,937.9c-66.7-48-138.6-91.8-214.2-131.6c-37.8-19.9-76.5-38.8-115.9-56.9   c-39.4-18.1-79.4-35.3-119.9-51.9c-81-33.2-163.8-63.7-246.8-93.8c-83.1-30-166.4-59.5-248.7-90.7c-82.3-31.1-163.5-64-241.9-100.3   c-78.5-36.3-154.1-76-225.1-120.1c-71.1-44-137.4-92.4-198-144.5C975.9,96.1,921.3,40,872-18.5c49.1,58.6,103.5,114.8,163.9,167.1   c60.4,52.3,126.6,100.8,197.6,145.1c70.9,44.3,146.5,84.3,224.9,120.8c78.4,36.5,159.5,69.6,241.8,100.9   c82.2,31.3,165.5,61.1,248.4,91.3c82.9,30.2,165.5,60.9,246.3,94.2c40.4,16.6,80.3,33.9,119.5,52c39.2,18.1,77.7,37.1,115.3,57   c75.2,39.8,146.7,83.7,212.9,131.6L2647.2,937.9z"></path>
	<path class="st0" d="M2647.8,978.1c-65.9-51.9-137.8-99.5-214.1-142.6c-76.3-43.2-156.9-81.8-239.8-117.3   c-82.9-35.4-168.2-67.7-253.9-99c-85.8-31.3-172.1-61.6-257.5-93.4c-85.4-31.7-169.9-65-251.6-101.8   c-81.7-36.8-160.6-77.2-234.7-122.2c-74.1-45-143.3-94.5-206.4-148.2C926.9,99.9,870.2,42,819.2-18.5   C869.9,42.2,926.4,100.1,989.3,154c62.9,53.8,131.9,103.6,206,148.8c74,45.2,152.8,85.9,234.5,122.9   c81.6,37.1,166,70.5,251.4,102.5c85.3,32,171.6,62.5,257.2,93.9c85.6,31.4,170.6,63.9,253.3,99.4c82.6,35.5,162.9,74.3,238.7,117.5   c75.9,43.1,147.3,90.7,212.8,142.6L2647.8,978.1z"></path>
	<path class="st0" d="M2648.6,1022.4c-32.4-28-66.4-55-101.9-80.8c-35.5-25.8-72.5-50.4-110.8-73.9   c-76.6-46.9-158.4-88.9-243.1-126.9c-42.4-19.1-85.4-37.2-129-54.6c-43.6-17.4-87.6-34.2-131.8-50.5   c-88.5-32.8-177.9-64.1-266.6-96.5c-88.6-32.5-176.5-66.2-261.6-103.6c-85.1-37.3-167.5-78.4-244.8-124.3   c-38.7-23-76.1-47.1-112-72.5c-35.9-25.4-70.4-51.9-103.2-79.5C878,103.9,819.1,44.2,766.4-18.4C818.9,44.3,877.6,104.1,943,159.6   c32.8,27.7,67.1,54.3,103,79.8c35.9,25.5,73.2,49.7,111.8,72.8c77.2,46.2,159.5,87.4,244.6,125c85.1,37.6,172.9,71.5,261.4,104.2   c88.5,32.7,177.8,64.2,266.2,97.1c44.2,16.5,88.1,33.3,131.5,50.8c43.4,17.5,86.4,35.7,128.6,54.8c84.4,38.2,165.8,80.2,242,127.1   c38.1,23.4,74.9,48.1,110.2,73.9c35.3,25.8,69.1,52.7,101.3,80.7L2648.6,1022.4z"></path>
	<path class="st0" d="M2649.5,1071.2c-31.7-30.2-65-59.4-100.1-87.4c-35.1-28-71.8-54.8-110.1-80.3c-38.3-25.5-78-49.7-119.1-72.7   c-41-23-83.3-44.7-126.4-65.2c-86.3-41.2-176.3-77.9-267.5-112.4c-91.3-34.5-183.9-67-275.9-100.3c-92-33.3-183.4-67.6-272.2-105.5   c-88.8-37.9-174.8-79.5-255.6-126.5c-40.4-23.4-79.5-48.2-117-74.2c-37.5-26-73.5-53.3-107.7-81.7   c-68.4-57-129.6-118.7-184.2-183.6c54.4,65,115.4,126.8,183.6,184c34.2,28.5,70,55.9,107.5,82c37.5,26.1,76.5,50.9,116.9,74.5   c80.7,47.1,166.7,89,255.4,127.1c88.7,38.1,180.1,72.6,272,106.1c91.9,33.5,184.4,66.1,275.4,100.8   c91.1,34.7,180.7,71.5,266.7,112.8c43,20.6,85.1,42.4,125.9,65.3c40.8,23,80.4,47.2,118.4,72.7c38,25.5,74.6,52.3,109.4,80.2   c34.8,28,68,57.1,99.4,87.2L2649.5,1071.2z"></path>
	<path class="st0" d="M2648.6,1123.5c-30.7-32.4-63.3-63.9-97.7-94.1c-34.4-30.3-70.7-59.3-108.7-87c-38-27.7-77.7-54.1-119-79.1   c-41.2-25-83.9-48.6-127.7-70.9c-87.7-44.7-179.8-84.1-273.7-120.6c-93.9-36.6-189.7-70.4-285.1-104.7   c-95.4-34.3-190.5-69.1-283-107.6c-46.2-19.2-91.8-39.4-136.4-60.7c-44.6-21.3-88.1-43.9-130.3-67.8   c-84.4-47.8-163.3-101.2-234.6-159.8c-35.6-29.3-69.4-59.9-101.3-91.6c-31.9-31.7-61.9-64.4-90.2-98C689,15.2,718.9,48,750.7,79.7   c31.8,31.7,65.5,62.4,101,91.9c71.1,58.8,149.9,112.4,234.2,160.4c42.2,24,85.7,46.7,130.2,68.1c44.6,21.4,90.1,41.7,136.3,61   c92.4,38.7,187.5,73.7,282.8,108.2c95.3,34.5,190.9,68.4,284.6,105.2c93.7,36.7,185.6,76.3,272.8,121c43.6,22.3,86.1,46,127.1,70.9   c41,25,80.5,51.3,118.3,79c37.8,27.7,73.8,56.7,108,86.9c34.2,30.2,66.5,61.6,97,94L2648.6,1123.5z"></path>
	<path class="st0" d="M2649.9,1184c-29.6-34.8-61.1-68.8-94.5-101.5c-33.5-32.8-68.9-64.4-106.4-94.7   c-74.9-60.5-158-115.3-246.6-164.1c-88.7-48.9-183-91.7-279.7-130.8c-96.7-39.2-195.9-74.7-295-110.2   c-99.1-35.5-198.2-71-294.9-110.1c-48.3-19.6-96-40-142.7-61.7c-46.7-21.7-92.3-44.6-136.6-69C965,293.2,882.2,238.5,807.7,177.9   c-37.3-30.3-72.6-61.9-105.8-94.7C668.6,50.4,637.4,16.4,608-18.4c29.2,34.9,60.4,68.9,93.5,101.8c33.2,32.9,68.3,64.6,105.6,94.9   c74.4,60.7,157,115.7,245.4,164.7c44.2,24.5,89.8,47.5,136.5,69.3c46.6,21.8,94.3,42.4,142.6,62c96.6,39.3,195.6,75.1,294.6,110.7   c99,35.7,198,71.4,294.5,110.7c96.5,39.3,190.4,82.2,278.7,131.1c88.3,48.8,170.9,103.5,245.3,164c37.2,30.2,72.5,61.8,105.7,94.5   c33.2,32.7,64.5,66.6,93.9,101.4L2649.9,1184z"></path>
	<path class="st0" d="M2597.2,1184c-29.6-34.8-61.1-68.8-94.5-101.5c-33.5-32.8-68.9-64.4-106.4-94.7   c-74.9-60.5-157.9-115.3-246.6-164.1c-88.7-48.9-183-91.7-279.7-130.8c-96.8-39.1-196-74.7-295.1-110.1   c-99.2-35.4-198.3-70.9-295-110c-48.3-19.5-96-40-142.7-61.7c-46.7-21.7-92.3-44.6-136.6-69c-88.5-48.8-171.2-103.5-245.7-164.1   c-37.3-30.3-72.6-61.9-105.8-94.7c-33.3-32.8-64.5-66.8-93.8-101.6c29.2,34.9,60.4,68.9,93.5,101.8c33.1,32.9,68.3,64.6,105.5,95   c74.3,60.8,157,115.7,245.4,164.7c44.2,24.5,89.8,47.5,136.5,69.3c46.6,21.8,94.3,42.3,142.6,62c96.6,39.3,195.7,75,294.7,110.7   c99,35.6,198.1,71.3,294.6,110.6c96.5,39.2,190.5,82.2,278.8,131.1c88.3,48.9,170.9,103.6,245.3,164.1   c37.2,30.2,72.5,61.8,105.7,94.6c33.2,32.7,64.5,66.6,93.9,101.4L2597.2,1184z"></path>
	<path class="st0" d="M2544.5,1184c-29.6-34.8-61.1-68.8-94.5-101.6c-33.5-32.8-68.9-64.4-106.4-94.7   c-74.9-60.6-157.9-115.3-246.6-164.2c-88.7-48.9-183-91.7-279.8-130.8c-96.8-39.1-196-74.6-295.2-110   c-99.2-35.4-198.4-70.9-295-110c-48.3-19.5-96-40-142.7-61.7c-46.7-21.7-92.3-44.6-136.6-69C859.3,293.4,776.5,238.6,702.1,178   c-37.3-30.3-72.5-61.9-105.8-94.8C563,50.4,531.8,16.4,502.4-18.4c29.2,34.9,60.4,68.9,93.5,101.8c33.1,32.9,68.3,64.6,105.5,95   c74.3,60.8,157,115.7,245.3,164.8c44.2,24.5,89.8,47.5,136.5,69.3c46.7,21.8,94.3,42.3,142.6,62c96.6,39.3,195.7,75,294.8,110.6   c99.1,35.6,198.1,71.3,294.6,110.5c96.5,39.2,190.5,82.1,278.8,131.1c88.3,48.9,170.9,103.6,245.3,164.1   c37.2,30.2,72.5,61.8,105.7,94.6c33.2,32.7,64.5,66.6,93.9,101.4L2544.5,1184z"></path>
	<path class="st0" d="M2491.9,1184c-29.6-34.8-61.1-68.8-94.5-101.6c-33.5-32.8-68.9-64.5-106.4-94.7   c-74.9-60.6-157.9-115.4-246.6-164.2c-88.7-48.9-183-91.7-279.8-130.8c-96.8-39.1-196-74.6-295.3-110   c-99.2-35.4-198.4-70.8-295.1-109.9c-48.3-19.5-96-40-142.7-61.7c-46.7-21.7-92.4-44.6-136.6-69C806.5,293.4,723.7,238.6,649.2,178   c-37.3-30.3-72.5-62-105.8-94.8C510.2,50.4,479,16.4,449.6-18.4c29.3,34.9,60.4,69,93.5,101.8c33.1,32.9,68.3,64.6,105.5,95   c74.3,60.8,156.9,115.8,245.3,164.8c44.2,24.5,89.8,47.5,136.5,69.3c46.7,21.8,94.3,42.3,142.6,62   c96.6,39.3,195.8,74.9,294.9,110.5c99.1,35.6,198.2,71.2,294.7,110.4c96.5,39.2,190.5,82.1,278.8,131.1   c88.3,48.9,170.8,103.6,245.3,164.2c37.2,30.2,72.4,61.8,105.7,94.6c33.2,32.8,64.5,66.6,93.9,101.4L2491.9,1184z"></path>
	<path class="st0" d="M2439.2,1184c-29.6-34.8-61.1-68.8-94.5-101.6c-33.4-32.8-68.9-64.5-106.3-94.8   c-74.9-60.6-157.9-115.4-246.6-164.2c-88.7-48.9-183-91.7-279.8-130.8c-96.8-39.1-196.1-74.5-295.3-109.9   c-99.2-35.3-198.5-70.8-295.2-109.8c-48.4-19.5-96.1-40-142.8-61.6c-46.7-21.7-92.4-44.6-136.6-69   c-88.5-48.8-171.2-103.6-245.7-164.3c-37.3-30.3-72.5-62-105.8-94.8c-33.2-32.8-64.5-66.8-93.8-101.7c29.3,34.9,60.4,69,93.5,101.9   c33.1,32.9,68.3,64.7,105.5,95c74.3,60.8,156.9,115.8,245.3,164.8c44.2,24.5,89.8,47.6,136.5,69.3c46.7,21.8,94.3,42.3,142.7,62   c96.7,39.3,195.8,74.9,294.9,110.4c99.1,35.5,198.2,71.1,294.8,110.4c96.5,39.2,190.6,82.1,278.8,131   c88.3,48.9,170.8,103.7,245.2,164.2c37.2,30.2,72.4,61.9,105.6,94.6c33.2,32.8,64.5,66.6,93.9,101.4L2439.2,1184z"></path>
	<path class="st0" d="M2386.5,1184c-29.6-34.8-61.1-68.8-94.5-101.6c-33.4-32.8-68.9-64.5-106.3-94.8   c-74.9-60.6-157.8-115.4-246.5-164.3c-88.7-48.9-183-91.7-279.9-130.8c-96.8-39.1-196.1-74.5-295.4-109.8   c-99.3-35.3-198.5-70.7-295.3-109.7c-96.7-39-190.9-81.8-279.4-130.7c-88.5-48.8-171.2-103.7-245.7-164.3   c-37.3-30.3-72.5-62-105.7-94.8C404.6,50.4,373.4,16.4,344-18.4c29.3,34.9,60.4,69,93.5,101.9c33.1,32.9,68.3,64.7,105.5,95.1   c74.3,60.8,156.9,115.8,245.3,164.9c88.4,49.1,182.5,92.1,279.2,131.3c96.7,39.3,195.9,74.8,295,110.4   c99.1,35.5,198.3,71.1,294.9,110.3c96.6,39.2,190.6,82.1,278.9,131c88.3,48.9,170.8,103.7,245.2,164.2   c37.2,30.3,72.4,61.9,105.6,94.6c33.2,32.8,64.4,66.7,93.8,101.4L2386.5,1184z"></path>
	<path class="st0" d="M2333.8,1184c-29.6-34.8-61.1-68.8-94.5-101.6c-33.4-32.8-68.9-64.5-106.3-94.8   c-74.9-60.6-157.8-115.5-246.5-164.3c-88.7-49-183.1-91.7-279.9-130.8c-96.9-39.1-196.2-74.4-295.5-109.7   c-99.3-35.3-198.6-70.6-295.3-109.7c-96.7-39-190.9-81.8-279.4-130.6c-88.5-48.8-171.2-103.7-245.6-164.3   c-37.2-30.3-72.5-62-105.7-94.9c-33.2-32.8-64.4-66.8-93.8-101.7c29.3,34.9,60.4,69,93.5,101.9c33.1,32.9,68.3,64.7,105.4,95.1   c74.3,60.8,156.9,115.9,245.3,164.9c88.4,49.1,182.6,92.1,279.2,131.3c96.7,39.2,195.9,74.8,295.1,110.3   c99.2,35.5,198.3,71,294.9,110.2c96.6,39.2,190.6,82,278.9,131c88.3,48.9,170.8,103.7,245.2,164.3c37.2,30.3,72.4,61.9,105.6,94.7   c33.2,32.8,64.4,66.7,93.8,101.4L2333.8,1184z"></path>
	<path class="st0" d="M2281.2,1184c-29.6-34.8-61.1-68.8-94.5-101.6c-33.4-32.8-68.9-64.5-106.3-94.8   c-74.9-60.6-157.8-115.5-246.5-164.4c-88.7-49-183.1-91.7-279.9-130.8c-96.9-39-196.2-74.4-295.6-109.7   c-99.3-35.3-198.6-70.6-295.4-109.6c-96.8-39-191-81.7-279.5-130.6c-88.5-48.8-171.1-103.7-245.6-164.4   c-37.2-30.3-72.5-62-105.7-94.9C299,50.4,267.8,16.5,238.4-18.4c29.3,34.9,60.4,69,93.5,101.9c33.1,32.9,68.3,64.7,105.4,95.1   c74.3,60.8,156.8,115.9,245.2,165c88.4,49.1,182.6,92.1,279.3,131.3c96.7,39.2,196,74.8,295.2,110.2c99.2,35.4,198.4,71,295,110.1   c96.6,39.1,190.7,82,278.9,131c88.3,48.9,170.8,103.8,245.2,164.3c37.2,30.3,72.4,61.9,105.6,94.7c33.2,32.8,64.4,66.7,93.8,101.5   L2281.2,1184z"></path>
	<path class="st0" d="M2228.5,1184c-29.6-34.8-61.1-68.8-94.5-101.6c-33.4-32.8-68.8-64.5-106.3-94.8c-37.4-30.3-76.9-59.2-118-86.6   c-41.2-27.4-84.1-53.3-128.4-77.8c-88.7-49-183.1-91.8-279.9-130.8c-96.9-39-196.3-74.3-295.6-109.6   c-99.3-35.2-198.7-70.5-295.5-109.5c-96.8-39-191-81.7-279.5-130.6c-88.5-48.9-171.1-103.8-245.6-164.4   c-37.2-30.3-72.5-62-105.7-94.9C246.2,50.5,215,16.5,185.6-18.4c29.3,34.9,60.4,69,93.5,101.9c33.1,32.9,68.2,64.7,105.4,95.1   c74.3,60.8,156.8,116,245.2,165c88.4,49.1,182.6,92.1,279.3,131.3c96.7,39.2,196,74.7,295.2,110.1   c99.2,35.4,198.4,70.9,295.1,110.1c96.6,39.1,190.7,82,279,131c44.1,24.5,86.8,50.4,127.8,77.8c40.9,27.4,80.2,56.3,117.4,86.6   c37.2,30.3,72.4,61.9,105.6,94.7c33.2,32.8,64.4,66.7,93.8,101.5L2228.5,1184z"></path>
	<path class="st0" d="M2175.8,1184c-29.6-34.8-61.1-68.8-94.5-101.6c-33.4-32.8-68.8-64.5-106.2-94.9c-37.4-30.3-76.9-59.2-118-86.6   c-41.2-27.4-84.1-53.4-128.4-77.8c-44.3-24.5-90.1-47.5-136.9-69.1c-46.8-21.7-94.6-42.1-143.1-61.6   c-96.9-39-196.3-74.3-295.7-109.5c-99.4-35.2-198.7-70.5-295.6-109.4c-96.8-38.9-191.1-81.7-279.5-130.6   c-88.5-48.9-171.1-103.8-245.6-164.5c-37.2-30.3-72.4-62.1-105.7-94.9c-33.2-32.9-64.4-66.9-93.8-101.7   c29.3,34.9,60.4,69,93.5,101.9c33.1,32.9,68.2,64.7,105.4,95.2c74.3,60.9,156.8,116,245.2,165.1c88.4,49.2,182.6,92.1,279.3,131.3   c96.8,39.2,196.1,74.7,295.3,110.1c99.2,35.4,198.5,70.8,295.2,110c96.6,39.1,190.7,82,279,131c44.1,24.5,86.8,50.4,127.8,77.8   c40.9,27.4,80.2,56.3,117.3,86.6c37.2,30.3,72.4,62,105.6,94.7c33.2,32.8,64.4,66.7,93.8,101.5L2175.8,1184z"></path>
	<path class="st0" d="M2123.1,1184c-29.6-34.8-61.1-68.8-94.5-101.7c-33.4-32.8-68.8-64.6-106.2-94.9c-37.4-30.3-76.9-59.2-118-86.7   c-41.2-27.4-84.1-53.4-128.4-77.8c-44.3-24.5-90.1-47.5-136.9-69.1c-46.8-21.7-94.6-42.1-143.1-61.6   c-96.9-39-196.4-74.3-295.8-109.4c-99.4-35.2-198.8-70.4-295.6-109.4c-96.8-38.9-191.1-81.7-279.6-130.6   C436.5,294,353.9,239,279.5,178.3c-37.2-30.3-72.4-62.1-105.6-95C140.6,50.5,109.4,16.5,80-18.4c29.3,34.9,60.4,69,93.5,101.9   c33.1,32.9,68.2,64.8,105.4,95.2c74.3,60.9,156.8,116,245.2,165.1C612.4,393,706.6,436,803.4,475.1c96.8,39.2,196.1,74.6,295.4,110   c99.3,35.4,198.5,70.8,295.2,109.9c48.3,19.6,96,40,142.7,61.8c46.7,21.7,92.2,44.8,136.4,69.2c44.1,24.5,86.8,50.4,127.8,77.9   c40.9,27.4,80.1,56.3,117.3,86.6c37.2,30.3,72.3,62,105.5,94.8c33.2,32.8,64.4,66.7,93.8,101.5L2123.1,1184z"></path>
	<path class="st0" d="M2070.5,1184c-29.6-34.8-61.1-68.8-94.5-101.7c-33.4-32.9-68.8-64.6-106.2-94.9c-37.4-30.3-76.8-59.2-118-86.7   c-41.2-27.4-84.1-53.4-128.4-77.9c-44.3-24.5-90.1-47.5-136.9-69.2c-46.8-21.7-94.7-42.1-143.1-61.6c-97-39-196.4-74.2-295.9-109.4   c-99.4-35.1-198.8-70.3-295.7-109.3c-96.8-38.9-191.1-81.6-279.6-130.6c-44.2-24.5-87-50.4-128-77.8c-41-27.5-80.3-56.4-117.5-86.7   c-37.2-30.4-72.4-62.1-105.6-95C87.8,50.5,56.6,16.5,27.2-18.4c29.3,34.9,60.4,69,93.5,102c33.1,32.9,68.2,64.8,105.3,95.2   c37.1,30.4,76.3,59.5,117.3,87c40.9,27.5,83.7,53.6,127.9,78.1c88.4,49.2,182.6,92.1,279.4,131.3c96.8,39.2,196.2,74.6,295.5,109.9   c99.3,35.3,198.6,70.7,295.3,109.8c48.3,19.5,96,40,142.7,61.8c46.7,21.7,92.2,44.8,136.4,69.2c44.1,24.5,86.8,50.4,127.8,77.9   c40.9,27.4,80.1,56.3,117.3,86.6c37.2,30.3,72.3,62,105.5,94.8c33.2,32.8,64.4,66.7,93.8,101.5L2070.5,1184z"></path>
	<path class="st0" d="M2017.8,1184c-29.5-34.7-60.8-68.5-94-101.2c-33.2-32.7-68.4-64.3-105.6-94.6c-37.2-30.2-76.4-59-117.3-86.4   c-40.9-27.4-83.6-53.3-127.7-77.7c-44.1-24.4-89.6-47.4-136.1-69c-46.6-21.6-94.1-42-142.4-61.4c-96.5-38.9-195.5-74-294.5-109   c-99-34.9-198-69.9-294.6-108.5c-96.5-38.5-190.6-80.8-279-129.2c-88.4-48.3-171-102.7-245.6-162.8c-37.3-30-72.6-61.5-105.9-94.1   C41.8,57.6,10.4,23.9-19.1-10.7C10.3,23.9,41.5,57.7,74.8,90.3c33.2,32.6,68.4,64.2,105.6,94.3c74.4,60.3,156.9,114.9,245.2,163.4   C514,396.7,608,439.2,704.4,477.9c96.5,38.8,195.5,74,294.3,109.1c98.9,35.1,197.7,70.4,293.9,109.4   c48.1,19.5,95.5,39.9,141.9,61.6c46.4,21.7,91.7,44.7,135.6,69.1c43.9,24.4,86.3,50.3,127,77.7c40.7,27.4,79.6,56.2,116.6,86.3   c36.9,30.2,71.9,61.8,104.9,94.4c33,32.7,64.1,66.4,93.4,101.1L2017.8,1184z"></path>
	<path class="st0" d="M1965.1,1184c-56.8-66.7-120.1-130.4-191.2-188.9c-35.5-29.2-72.9-57.3-111.8-83.9   c-39-26.7-79.6-51.9-121.6-75.9c-84-47.9-173.4-90.1-265.6-128.3c-92.2-38.2-187.1-72.6-282.3-106.3   C897.5,567,801.9,534,708.1,498.1c-93.7-35.9-185.6-74.6-273-118.7c-43.7-22-86.2-45.3-127.3-70c-41.1-24.7-80.6-50.8-118.5-78.3   c-37.8-27.5-73.9-56.3-108.2-86.3c-34.3-30-66.7-61.2-97.4-93.3C14.4,83.7,46.7,115,80.9,145c34.2,30.1,70.2,59,107.9,86.5   c37.8,27.5,77.3,53.7,118.3,78.5c41,24.8,83.5,48.2,127.1,70.3c87.3,44.3,179.1,83.2,272.8,119.3c93.7,36.1,189.2,69.4,284.2,103.3   c95.1,33.9,189.7,68.4,281.7,106.8c91.9,38.3,181,80.6,264.6,128.5c41.8,23.9,82.2,49.2,120.9,75.9c38.8,26.6,75.9,54.6,111.2,83.9   c70.6,58.5,133.6,122,189.9,188.6L1965.1,1184z"></path>
	<path class="st0" d="M1912.5,1184c-27.4-32.2-56.3-63.7-87-94.3c-30.6-30.6-62.8-60.2-97-88.6c-34.1-28.4-69.8-55.7-107.1-81.7   c-37.3-26-76.2-50.8-116.3-74.2c-40.2-23.5-81.7-45.6-124.2-66.6c-42.5-21-86.1-40.8-130.3-59.6c-88.5-37.7-179.8-71.5-271.6-104.3   c-91.8-32.8-184.3-64.5-275.4-98.3c-91.1-33.8-180.9-69.8-266.9-110.4c-43-20.3-85.1-41.7-126-64.4   c-40.9-22.7-80.5-46.6-118.5-71.9c-38.1-25.3-74.7-51.8-109.6-79.6c-34.9-27.7-68.1-56.7-99.7-86.6c31.4,30,64.6,59,99.4,86.8   c34.8,27.8,71.3,54.5,109.3,79.8c38,25.4,77.6,49.4,118.4,72.2c40.8,22.8,82.9,44.3,125.8,64.7c86,40.8,175.7,77,266.7,111   c91,34,183.4,65.9,275.1,98.9c91.7,32.9,182.8,66.9,270.9,104.7c88.2,37.8,173.5,79.5,253.5,126.5c40,23.5,78.6,48.2,115.7,74.2   c37.1,26,72.6,53.3,106.5,81.7c33.9,28.4,65.9,58,96.3,88.5c30.4,30.5,59.1,62,86.3,94.1L1912.5,1184z"></path>
	<path class="st0" d="M1859.8,1184c-26.5-31.1-54.4-61.6-83.9-91.2l-11.1-11.1l-5.6-5.5c-1.8-1.9-3.8-3.6-5.7-5.4   c-7.7-7.2-15.3-14.5-23-21.7l-23.6-21.3c-1.9-1.8-4-3.5-6-5.2l-6.1-5.2l-12.1-10.4c-32.7-27.6-67-54.2-102.7-79.6   c-35.7-25.4-72.9-49.6-111.4-72.6c-77-46.1-159-87.1-244-124.3c-85-37.2-172.7-70.6-261.3-102.5c-88.6-31.9-178-62.5-266.4-94.6   c-88.4-32-176-65.6-260.6-103.2c-84.5-37.5-166.1-79-242.3-125.5c-38.1-23.2-75-47.7-110.3-73.3C48.4,205.8,14.6,179-17.7,151.1   c32.1,27.9,65.9,54.8,101.1,80.5c35.2,25.7,72,50.3,110,73.6c76.1,46.7,157.5,88.4,242,126.1c84.5,37.8,172,71.5,260.3,103.8   c88.4,32.3,177.7,63.1,266.1,95.2c88.4,32.1,176,65.6,260.6,102.9c84.7,37.3,166.4,78.4,243,124.5c38.3,23,75.3,47.2,110.8,72.6   c35.5,25.4,69.6,51.9,102.1,79.5l12.1,10.4l6,5.2c2,1.7,4.1,3.5,6,5.2l23.5,21.3c7.7,7.2,15.2,14.4,22.8,21.7   c1.9,1.8,3.8,3.6,5.7,5.4l5.5,5.5l11,11c29.3,29.6,57,60,83.2,91.1L1859.8,1184z"></path>
	<path class="st0" d="M1807.1,1184c-25.6-30.1-52.5-59.6-80.9-88.3l-10.7-10.7c-3.6-3.6-7.1-7.2-10.8-10.6l-22.1-21l-22.7-20.7   l-2.8-2.6l-2.9-2.5l-5.8-5.1l-11.7-10.1c-62.8-53.7-131.5-103.4-205.3-148.5c-73.7-45.1-152.4-85.6-233.9-122.3   c-81.6-36.7-166-69.6-251.4-100.9c-85.4-31.2-171.8-60.9-257.6-91.4c-85.8-30.6-171-62.1-253.9-96.9   c-82.8-34.8-163.3-73-239.2-115.8c-76-42.7-147.4-90.1-213-141.7c65.4,51.8,136.6,99.3,212.5,142.2c75.8,43,156.2,81.4,238.9,116.4   c82.8,35,167.9,66.8,253.6,97.5c85.7,30.8,172,60.6,257.2,92c85.2,31.4,169.4,64.5,250.7,101.3c81.3,36.8,159.6,77.3,232.9,122.5   c73.4,45.1,141.7,94.9,204.1,148.5l11.6,10.1l5.8,5.1l2.9,2.5l2.8,2.6l22.6,20.6l21.9,21c3.7,3.5,7.2,7.1,10.8,10.6l10.6,10.7   c28.2,28.6,54.9,58.1,80.3,88.1L1807.1,1184z"></path>
	<path class="st0" d="M1754.4,1184c-24.8-29.1-50.8-57.7-78.2-85.5l-10.3-10.4c-3.5-3.4-6.8-7-10.4-10.3l-21.3-20.4l-21.9-20.1   c-3.6-3.4-7.4-6.6-11.2-9.9l-11.2-9.8c-60.4-52.2-126.3-100.8-197.1-145c-70.7-44.3-146.2-84.1-224.6-120.3   c-78.4-36.2-159.6-68.7-242-99.4c-82.4-30.7-165.9-59.5-249.1-88.8C593.9,534.8,511,505,430,472.4c-40.5-16.3-80.6-33.2-119.9-51   c-39.3-17.8-78-36.6-115.6-56.3c-75.4-39.5-147-83.1-213.2-130.9c66.1,48,137.5,91.8,212.8,131.5c37.6,19.8,76.2,38.7,115.5,56.6   c39.3,17.9,79.3,35,119.8,51.3c80.9,32.8,163.8,62.8,246.8,92.3c83.1,29.5,166.5,58.5,248.7,89.4C1007,686,1088,718.7,1166.1,755   c78.1,36.3,153.2,76.2,223.5,120.5c70.4,44.2,135.9,92.8,195.9,145l11.2,9.8c3.7,3.3,7.5,6.5,11.1,9.9l21.7,20l21.1,20.4   c3.6,3.4,6.9,6.9,10.4,10.3l10.3,10.4c27.2,27.8,53,56.3,77.6,85.4L1754.4,1184z"></path>
	<path class="st0" d="M1701.8,1184c-24-28.2-49-55.8-75.4-82.7l-10-10.1l-5-5l-2.5-2.5l-2.6-2.5l-20.5-19.8l-21-19.5   c-3.5-3.3-7.1-6.4-10.7-9.6l-10.8-9.5c-58-50.7-121.1-98-188.9-141.3c-67.7-43.3-139.9-82.6-215.1-118.2   c-75.2-35.7-153.2-67.8-232.5-97.9C748.3,605.2,584.6,553,426.7,492c-79-30.5-156.5-63.1-231-99.5   c-74.5-36.3-145.8-76.4-212.5-120.4c66.5,44.2,137.7,84.5,212,120.9c74.4,36.5,151.8,69.4,230.7,100   c157.8,61.4,321.3,114,479.5,174.6c79.1,30.3,156.9,62.5,231.8,98.3c74.9,35.8,146.8,75.1,214.1,118.4   c67.4,43.3,130.1,90.6,187.7,141.3l10.7,9.5c3.6,3.2,7.2,6.3,10.6,9.6l20.9,19.4l20.3,19.8l2.5,2.5l2.5,2.5l4.9,5l9.9,10   c26.1,26.9,51,54.5,74.8,82.6L1701.8,1184z"></path>
	<path class="st0" d="M1649.1,1184c-23.2-27.2-47.4-54-72.8-80.1l-9.6-9.7l-4.8-4.9l-2.4-2.4l-2.5-2.4l-19.8-19.2   c-6.7-6.3-13.5-12.6-20.3-18.9c-1.7-1.6-3.4-3.2-5.1-4.7l-5.2-4.6l-10.4-9.3c-55.8-49.3-116.4-95.4-181.4-137.8   c-65-42.4-134.2-81.1-206.4-116.2c-72.2-35.2-147.2-66.9-223.6-96.6c-152.8-59.3-311.1-110.1-465-167.6   c-76.9-28.7-152.8-59.2-226.2-92.8c-73.4-33.6-144.1-70.5-210.9-111.2c66.6,40.9,137.2,77.9,210.5,111.7   c73.2,33.8,149,64.5,225.9,93.4c153.7,57.9,311.7,109.1,464.2,168.7c76.2,29.8,151,61.7,222.9,97c71.9,35.3,140.8,74,205.4,116.4   c64.6,42.4,124.9,88.6,180.2,137.8l10.3,9.3l5.2,4.6c1.7,1.5,3.4,3.1,5.1,4.7l20.1,18.9l19.6,19.2l2.4,2.4l2.4,2.4l4.8,4.9l9.5,9.7   c25.2,26.1,49.3,52.8,72.3,80L1649.1,1184z"></path>
	<path class="st0" d="M1596.4,1184c-44.9-52.7-93.6-103.6-147.3-151.4c-53.6-47.9-111.8-92.9-174.1-134.3   c-62.3-41.5-128.7-79.5-197.9-114.1c-69.3-34.7-141.3-66-214.9-95.2c-73.5-29.2-148.5-56.2-223.8-82.7   c-75.3-26.5-150.9-52.5-225.7-79.7c-74.8-27.2-148.8-55.7-220.9-86.9c-72-31.2-142-65.1-208.5-102.6   c66.3,37.6,136.2,71.8,208.1,103.1c71.9,31.4,145.8,60,220.5,87.5c74.7,27.4,150.2,53.6,225.4,80.3c75.1,26.7,150,53.9,223.3,83.2   c73.3,29.3,145.2,60.8,214.1,95.6c69,34.7,135,72.8,196.9,114.3c61.9,41.5,119.7,86.5,172.9,134.3   c53.4,47.8,101.7,98.6,146.2,151.2L1596.4,1184z"></path>
	<path class="st0" d="M1543.7,1184c-43.4-51-90.4-100.3-142.2-146.7c-51.6-46.5-107.4-90.4-167.2-130.9   c-59.8-40.6-123.4-77.9-189.9-112.1c-66.5-34.2-135.7-65.2-206.5-94c-70.8-28.8-143.1-55.4-215.9-81.2   c-72.7-25.8-146-50.9-218.6-76.8c-72.7-25.9-144.8-52.7-215.3-81.8c-70.5-29-139.4-60.4-205.4-95c65.8,34.7,134.6,66.3,205,95.5   c70.4,29.3,142.5,56.2,215,82.3c72.6,26.1,145.7,51.4,218.3,77.4c72.6,26,144.8,52.8,215.3,81.7c70.6,28.9,139.6,60,205.8,94.3   c66.2,34.3,129.5,71.6,188.9,112.3c59.4,40.6,114.9,84.5,166.1,131c51.3,46.4,98,95.7,141,146.6L1543.7,1184z"></path>
	<path class="st0" d="M1491.1,1184c-41.9-49.3-87.3-97-137-142c-49.6-45.1-103.1-87.8-160.3-127.4   c-57.3-39.6-118.2-76.2-181.9-109.8c-63.7-33.6-130-64.3-198.1-92.7c-68-28.4-137.6-54.6-207.7-79.8   c-70.1-25.2-140.9-49.5-211.3-74.2c-70.4-24.7-140.5-50-209.4-77.1c-68.8-27.1-136.4-56.1-201.7-87.9   c65.1,32,132.5,61.1,201.3,88.4c68.7,27.3,138.8,52.8,209,77.7c70.3,24.9,140.9,49.4,210.9,74.8c70,25.4,139.4,51.7,207.2,80.3   c67.8,28.5,133.9,59.3,197.3,93c63.4,33.7,124,70.4,180.9,110c56.9,39.7,110,82.4,159.2,127.4c49.3,45,94.2,92.7,135.8,141.9   L1491.1,1184z"></path>
	<path class="st0" d="M1438.4,1184c-40.6-47.7-84.3-93.9-132.1-137.6c-47.7-43.8-99.1-85.4-154-124.1   c-54.9-38.7-113.3-74.6-174.4-107.7c-61.1-33.1-124.8-63.4-190.1-91.4c-65.4-28-132.4-53.8-200-78.5   c-67.7-24.7-136-48.3-204.2-72.1c-68.2-23.8-136.3-47.8-203.5-73.2C112.9,473.9,46.7,447-17.5,417.6   c64.1,29.6,130.1,56.7,197.2,82.3c67,25.7,135,49.8,203.1,73.8c68.1,24,136.3,47.8,203.8,72.6c67.5,24.9,134.3,50.9,199.5,79   c65.1,28.2,128.6,58.6,189.4,91.7c60.8,33.2,118.8,69.2,173.4,107.9c54.6,38.7,105.6,80.3,152.9,124.1   c47.4,43.7,90.8,89.9,131,137.5L1438.4,1184z"></path>
	<path class="st0" d="M1385.7,1184c-39.2-46-81.3-90.7-127.2-133.1c-45.8-42.4-95-82.8-147.6-120.6   c-52.6-37.8-108.4-72.9-166.8-105.4c-58.4-32.5-119.4-62.4-182-90c-62.7-27.7-127-53.1-192-77.3c-65.1-24.2-130.9-47.2-196.8-70.1   c-65.9-22.9-131.8-45.8-197.1-69.7c-65.2-23.9-129.8-49-192.8-76.1c62.9,27.3,127.3,52.6,192.4,76.7c65.1,24.1,131,47.2,196.7,70.3   c65.8,23.1,131.5,46.3,196.4,70.7c64.9,24.4,129,50,191.5,77.8c62.4,27.8,123.1,57.7,181.3,90.4c58.1,32.6,113.6,67.8,165.8,105.6   c52.3,37.8,101.1,78.2,146.5,120.6c45.5,42.4,87.3,87,126.1,133L1385.7,1184z"></path>
	<path class="st0" d="M1333,1184c-37.9-44.5-78.4-87.7-122.6-128.8c-44-41.1-91.2-80.4-141.6-117.2   c-50.4-36.8-103.8-71.3-159.8-103.2c-55.9-31.9-114.4-61.4-174.5-88.6c-60.1-27.3-121.9-52.4-184.5-76.3   c-62.6-23.8-126.1-46.3-189.8-68.5c-63.7-22.2-127.5-44.1-190.8-66.8c-63.3-22.7-126.2-46.2-187.8-71.3   c61.5,25.4,124.3,49,187.5,71.9c63.2,22.9,126.9,45,190.5,67.4c63.5,22.4,126.9,45.1,189.3,69.1c62.5,24,124.1,49.3,183.9,76.7   c59.9,27.4,118,57,173.7,89c55.7,32,108.8,66.5,158.8,103.4c50.1,36.8,96.9,76.1,140.6,117.3c43.8,41.1,84,84.3,121.5,128.7   L1333,1184z"></path>
	<path class="st0" d="M1280.4,1184c-36.5-42.9-75.5-84.6-117.8-124.4c-42.2-39.8-87.3-77.9-135.5-113.7   c-48.1-35.8-99.1-69.5-152.5-100.8c-53.4-31.3-109.2-60.3-166.7-87.1c-57.5-26.9-116.6-51.7-176.7-75.2   c-60.1-23.4-121.1-45.5-182.3-67c-122.5-43.1-246.3-84.3-366.4-131.1C102.3,532,225.8,573.6,348.1,617c61.1,21.7,122,44,181.9,67.6   c59.9,23.6,118.8,48.6,176,75.6c57.2,27,112.8,56.1,165.9,87.5c53.1,31.4,103.8,65.1,151.6,100.9c47.8,35.8,92.6,74,134.5,113.8   c42,39.8,80.6,81.5,116.8,124.3L1280.4,1184z"></path>
	<path class="st0" d="M1227.7,1184c-35.2-41.3-72.9-81.4-113.3-119.9l-15.3-14.4l-7.6-7.2c-2.6-2.4-5.3-4.7-7.9-7l-15.9-14l-7.9-7   c-2.6-2.3-5.3-4.7-8-6.9l-32.9-27.2l-34-26.5c-46-34.8-94.6-67.6-145.5-98.2c-50.9-30.6-104.1-59.1-159-85.6   c-54.9-26.5-111.3-51-168.9-74.1c-57.5-23.1-116-44.7-174.9-65.7c-117.7-42-237.1-81.4-353.8-125c116.5,44,235.6,83.8,353.1,126.1   c58.7,21.2,117.1,43,174.4,66.2c57.3,23.2,113.6,47.9,168.2,74.5c54.6,26.6,107.5,55.2,158.2,85.9c50.6,30.7,98.9,63.6,144.6,98.4   l33.7,26.5l32.6,27.3c2.8,2.2,5.3,4.6,8,6.9l7.9,7l15.7,14c2.6,2.3,5.3,4.6,7.8,7l7.6,7.2l15.1,14.4c40,38.5,77.3,78.6,112.2,119.9   L1227.7,1184z"></path>
	<path class="st0" d="M1175,1184c-33.9-39.7-70.1-78.4-108.7-115.6c-38.7-37.2-79.8-72.9-123.7-106.7   c-43.8-33.8-90.2-65.8-138.7-95.7c-48.5-30-99.2-57.9-151.5-84c-52.3-26.1-106.2-50.3-161.2-73c-55-22.7-111-44-167.5-64.5   c-113-41-227.8-78.9-340.9-119.8c112.8,41.2,227.5,79.5,340.2,120.9c56.3,20.7,112.2,42.1,167,65c54.8,22.9,108.5,47.2,160.6,73.4   c52.1,26.2,102.5,54.3,150.7,84.3c48.2,30,94.2,62.1,137.8,95.9c43.6,33.8,84.4,69.6,122.7,106.8c38.3,37.2,74.1,75.8,107.7,115.6   L1175,1184z"></path>
	<path class="st0" d="M1122.3,1184c-32.6-38.2-67.2-75.4-104.2-111.2c-37-35.8-76.2-70.4-118.1-103.1c-41.8-32.8-85.8-63.8-132-93.1   C722,847.4,673.8,820,624,794.4c-49.8-25.6-101.1-49.5-153.6-71.9c-52.5-22.4-106-43.3-160-63.4C202.3,619,92,582.4-17.1,543.9   c108.9,38.9,219,75.9,326.8,116.4c53.9,20.2,107.2,41.4,159.5,63.9c52.2,22.5,103.4,46.5,152.9,72.3   c49.5,25.7,97.4,53.2,143.3,82.6c45.8,29.3,89.6,60.5,131,93.3c41.5,32.8,80.4,67.3,117.1,103.2c36.6,35.9,70.9,73.1,103.2,111.2   L1122.3,1184z"></path>
	<path class="st0" d="M1069.7,1184c-31.3-36.7-64.5-72.5-99.9-107c-35.4-34.5-72.8-67.9-112.6-99.6c-39.8-31.7-81.7-61.9-125.5-90.4   c-43.8-28.5-89.6-55.3-137-80.5c-47.3-25.1-96.2-48.6-146.2-70.7c-50-22-101-42.7-152.7-62.4C192.5,634.1,86.7,598.5-18.4,562   C86.5,598.9,192,634.8,295.1,674.6c51.5,19.9,102.4,40.7,152.2,62.9c49.8,22.2,98.4,45.8,145.5,71.1   c47.1,25.3,92.6,52.2,136.2,80.8c43.6,28.6,85.2,58.9,124.6,90.6c39.5,31.7,76.6,65.1,111.6,99.7c35,34.6,67.9,70.4,98.9,107   L1069.7,1184z"></path>
	<path class="st0" d="M1017,1184c-30-35.2-61.7-69.5-95.4-102.7c-33.7-33.2-69.3-65.3-107.1-95.9c-37.8-30.6-77.5-59.9-119-87.6   c-41.5-27.7-84.9-53.9-129.7-78.5c-44.8-24.6-91.2-47.7-138.6-69.4c-47.4-21.7-96-42-145.2-61.3c-98.4-38.7-199.4-73.4-300.3-108.1   C82.3,615.5,183,650.5,281.1,689.6c49,19.5,97.4,40,144.6,61.8c47.2,21.9,93.3,45.1,137.9,69.8c44.6,24.7,87.7,51,128.9,78.8   c41.3,27.8,80.7,57.2,118.1,87.8c37.5,30.7,72.8,62.8,106.2,96.1c33.4,33.2,64.8,67.6,94.5,102.7L1017,1184z"></path>
	<path class="st0" d="M964.3,1184c-28.6-33.6-58.9-66.4-90.9-98.2l-12.1-11.9l-6-5.9l-6.2-5.8l-12.5-11.7l-6.2-5.8   c-2.1-1.9-4.1-3.9-6.3-5.8l-25.7-22.8L772,993.8c-35.7-29.5-73.2-57.7-112.3-84.6c-39.2-26.9-80-52.3-122.3-76.4   c-42.3-24-86-46.7-130.7-68c-44.8-21.3-90.7-41.3-137.2-60.3c-93.2-38-189.1-71.9-285.4-105.1c96,33.6,191.7,67.9,284.6,106.2   c46.4,19.2,92.1,39.3,136.7,60.8c44.6,21.5,88,44.2,130.1,68.4c42,24.2,82.6,49.7,121.5,76.7c38.9,27,76.1,55.3,111.5,84.8   l26.2,22.4l25.5,22.9c2.1,1.9,4.2,3.8,6.2,5.8l6.2,5.8l12.3,11.7l6.2,5.8l6,5.9l12,11.9c31.7,31.8,61.6,64.6,89.9,98.2L964.3,1184z   "></path>
	<path class="st0" d="M911.6,1184c-54.8-64.2-115.3-125.6-183-182.5c-33.8-28.4-69.3-55.7-106.3-81.7c-37-26-75.6-50.8-115.6-74.3   c-79.9-47-165.2-88.6-253.5-125.8c-88.3-37.3-179.6-70.6-271.5-102.7c91.7,32.4,182.6,66.1,270.6,103.7   c88,37.6,172.9,79.5,252.3,126.7c39.7,23.6,78,48.5,114.8,74.6c36.7,26.1,71.9,53.5,105.4,82c67.1,56.9,127,118.5,181.1,182.6   L911.6,1184z"></path>
	<path class="st0" d="M859,1184c-51.9-60.8-109.1-119.3-172.5-173.6c-63.5-54.3-133-104.7-207.6-150.2   c-74.7-45.5-154.4-86.3-237.2-122.8c-82.8-36.6-168.6-69.3-255.4-100.2c86.6,31.3,172.1,64.3,254.6,101.3   c82.5,36.9,161.8,77.9,236,123.7c74.2,45.7,143.1,96.2,206,150.7c62.9,54.5,119.4,112.9,170.7,173.8L859,1184z"></path>
	<path class="st0" d="M806.3,1184c-49.5-58-103.8-113.8-163.8-166c-60-52.2-125.5-100.8-195.8-145   c-70.3-44.3-145.3-84.2-223.5-120.1c-78.2-36-159.3-68.1-241.7-98.3c82.1,30.5,163,63,240.8,99.3c77.9,36.2,152.5,76.5,222.3,120.9   c69.8,44.5,134.8,93.2,194.2,145.5c59.4,52.3,113.1,108.2,161.9,166.3L806.3,1184z"></path>
	<path class="st0" d="M753.6,1184c-46.8-54.8-97.8-107.7-153.9-157.4c-56.1-49.7-117.1-96.2-182.6-138.9   c-65.4-42.7-135.2-81.6-208.1-116.7C136.1,735.9,60.3,704.3-17,675c77,29.7,152.5,61.7,225.1,97.2   c72.6,35.4,141.9,74.6,206.8,117.5c65,42.9,125.4,89.6,181,139.4c55.5,49.8,106,102.7,152.1,157.6L753.6,1184z"></path>
	<path class="st0" d="M700.9,1184c-44-51.6-91.8-101.4-144-148.5c-52.2-47-108.8-91.4-169.4-132.4c-60.6-41-125-78.7-192.6-112.9   C127.6,756,57.2,725-14.8,696.4c71.7,29,141.7,60.3,208.9,94.9c67.2,34.6,131.2,72.5,191.3,113.7c60.1,41.2,116.1,85.7,167.7,132.9   c51.6,47.2,98.8,97.1,142.2,148.7L700.9,1184z"></path>
	<path class="st0" d="M648.3,1184c-41.2-48.3-85.7-95-134.1-139.5c-48.4-44.4-100.6-86.4-156.4-125.6   c-55.8-39.2-115-75.5-177.2-108.7C118.5,777,53.6,746.7-13,718.7c66.3,28.3,130.8,59,192.6,92.6c61.8,33.5,120.6,70.1,175.9,109.5   c55.3,39.4,106.9,81.6,154.8,126.1c47.8,44.6,91.8,91.4,132.4,139.8L648.3,1184z"></path>
	<path class="st0" d="M595.6,1184c-38.7-45.3-80.3-89.2-125.2-131.2c-45-41.9-93.3-81.8-144.8-119.2   c-51.5-37.4-106.1-72.3-163.4-104.5C104.9,796.9,45,767.3-16.6,740c61.3,27.7,120.9,57.6,177.8,90.2   c56.9,32.5,111.1,67.7,162.1,105.3c51,37.6,98.8,77.7,143.2,119.7c44.4,42.1,85.4,86.1,123.5,131.5L595.6,1184z"></path>
	<path class="st0" d="M542.9,1184c-35.9-42-74.4-82.8-115.7-122c-41.3-39.1-85.4-76.6-132.3-111.9c-46.9-35.4-96.6-68.6-148.7-99.6   c-52.1-31-106.5-59.7-162.6-86.3c55.8,27,109.9,56,161.6,87.2c51.7,31.3,100.9,64.8,147.3,100.3c46.4,35.6,90,73.2,130.7,112.5   c40.7,39.3,78.6,80.2,114,122.3L542.9,1184z"></path>
	<path class="st0" d="M490.2,1184c-33-38.6-68.1-76.1-105.6-112.3c-37.5-36.2-77.4-71-119.6-104c-42.2-33.1-86.9-64.4-133.6-93.9   c-46.7-29.4-95.5-57-146-82.7c50.1,26,98.6,53.9,144.9,83.6c46.3,29.7,90.5,61.3,132.3,94.6c41.8,33.3,81.1,68.3,118.1,104.6   c37,36.3,71.5,74,104,112.7L490.2,1184z"></path>
	<path class="st0" d="M437.6,1184c-30.1-35.1-61.9-69.4-95.7-102.6c-33.8-33.2-69.5-65.2-107.2-95.9   c-37.7-30.7-77.4-59.9-118.9-87.7C74.2,870.2,30.9,844-14,819.4c44.5,24.9,87.5,51.4,128.6,79.4c41.1,28,80.4,57.5,117.6,88.4   c37.2,30.9,72.5,63.1,105.7,96.4c33.3,33.3,64.5,67.8,94.1,103L437.6,1184z"></path>
	<path class="st0" d="M384.9,1184c-54.1-63.2-114-123.7-180.5-179.8c-33.2-28.1-68.1-55-104.4-80.8c-36.4-25.8-74.2-50.3-113.4-73.5   c38.9,23.6,76.3,48.4,112.3,74.4c35.9,26,70.3,53.3,103.1,81.5c65.5,56.6,124.4,117.3,177.4,180.8L384.9,1184z"></path>
	<path class="st0" d="M332.2,1184c-48.1-56.1-100.8-110.1-158.6-160.8c-57.8-50.7-120.7-98-188.2-141.3   c66.8,43.9,128.8,91.8,185.7,142.9c56.9,51.1,108.5,105.4,155.5,161.8L332.2,1184z"></path>
	<path class="st0" d="M279.5,1184c-41.8-48.7-87-95.8-136.1-140.4c-49-44.7-101.9-87-158.4-126.3c55.7,40,107.7,82.8,155.8,127.9   c48.1,45.1,92.3,92.5,133.1,141.5L279.5,1184z"></path>
	<path class="st0" d="M226.9,1184c-35.3-41.1-73.1-81-113.6-119.2c-40.5-38.3-83.6-74.9-129.4-109.6c45,35.2,87.3,72.4,126.8,111.1   c39.5,38.7,76.3,79,110.6,120.4L226.9,1184z"></path>
	<path class="st0" d="M174.2,1184c-28.9-33.4-59.4-66.1-91.6-97.7c-32.3-31.6-66.3-62.2-102-91.6c35,29.9,68.1,61,99.4,93.1   c31.3,32.1,60.8,65.1,88.7,98.9L174.2,1184z"></path>
	<path class="st0" d="M121.5,1184c-41.3-47.4-85.9-93.2-134.1-136.7c46.5,44.6,89.2,91.2,128.5,139.4L121.5,1184z"></path>
	<path class="st0" d="M68.8,1184c-26.7-30.1-54.6-59.4-84-88c27.6,29.5,53.7,59.8,78.4,90.6L68.8,1184z"></path>
	<polygon class="st0" points="16.2,1184 -18.7,1148.5 10.6,1186.7  "></polygon>
</g>
</svg>
